<mxfile host="65bd71144e">
    <diagram id="XlPbG62ZfzjRQueGpX2F" name="Page-1">
        <mxGraphModel dx="820" dy="575" grid="1" gridSize="1" guides="1" tooltips="1" connect="1" arrows="1" fold="1" page="1" pageScale="1" pageWidth="827" pageHeight="1169" background="#006666" math="0" shadow="0">
            <root>
                <mxCell id="0"/>
                <mxCell id="1" parent="0"/>
                <mxCell id="95" value="" style="rounded=1;whiteSpace=wrap;html=1;dashed=1;fontSize=10;fontColor=#004A52;strokeColor=#4DB2BD;fillColor=none;gradientColor=none;arcSize=8;perimeterSpacing=0;strokeWidth=2;" parent="1" vertex="1">
                    <mxGeometry x="8" y="151" width="810" height="414" as="geometry"/>
                </mxCell>
                <mxCell id="22" value="" style="rounded=1;whiteSpace=wrap;html=1;fontColor=#004A52;strokeColor=#FFFFFF;fillColor=#00636E;arcSize=11;" parent="1" vertex="1">
                    <mxGeometry x="242" y="174" width="334" height="262" as="geometry"/>
                </mxCell>
                <mxCell id="23" value="&lt;font style=&quot;font-size: 19px&quot;&gt;Server&lt;/font&gt;" style="text;html=1;strokeColor=none;fillColor=none;align=center;verticalAlign=middle;whiteSpace=wrap;rounded=0;fontColor=#FFFFFF;" parent="1" vertex="1">
                    <mxGeometry x="349.5" y="178" width="119" height="30" as="geometry"/>
                </mxCell>
                <mxCell id="40" style="edgeStyle=none;html=1;exitX=0.75;exitY=0;exitDx=0;exitDy=0;entryX=0.301;entryY=1.008;entryDx=0;entryDy=0;entryPerimeter=0;fontSize=19;fontColor=#FFFFFF;endArrow=blockThin;endFill=1;strokeWidth=2;" parent="1" source="24" target="29" edge="1">
                    <mxGeometry relative="1" as="geometry"/>
                </mxCell>
                <mxCell id="24" value="" style="rounded=1;whiteSpace=wrap;html=1;fontColor=#004A52;strokeColor=#FFFFFF;fillColor=#00636E;" parent="1" vertex="1">
                    <mxGeometry x="257" y="318" width="120" height="107" as="geometry"/>
                </mxCell>
                <mxCell id="28" value="Service Server" style="text;html=1;strokeColor=none;fillColor=none;align=center;verticalAlign=middle;whiteSpace=wrap;rounded=0;fontColor=#FFFFFF;" parent="1" vertex="1">
                    <mxGeometry x="271" y="322" width="93" height="30" as="geometry"/>
                </mxCell>
                <mxCell id="42" style="edgeStyle=none;html=1;exitX=0.105;exitY=0.994;exitDx=0;exitDy=0;entryX=0.25;entryY=0;entryDx=0;entryDy=0;fontSize=19;fontColor=#FFFFFF;endArrow=none;endFill=0;strokeWidth=2;exitPerimeter=0;" parent="1" source="29" target="24" edge="1">
                    <mxGeometry relative="1" as="geometry"/>
                </mxCell>
                <mxCell id="43" style="edgeStyle=none;html=1;exitX=0.701;exitY=1.008;exitDx=0;exitDy=0;entryX=0.25;entryY=0;entryDx=0;entryDy=0;fontSize=19;fontColor=#FFFFFF;endArrow=blockThin;endFill=1;strokeWidth=2;exitPerimeter=0;" parent="1" source="29" target="32" edge="1">
                    <mxGeometry relative="1" as="geometry"/>
                </mxCell>
                <mxCell id="29" value="" style="rounded=1;whiteSpace=wrap;html=1;fontSize=19;fontColor=#FFFFFF;strokeColor=#FFFFFF;fillColor=#00636E;" parent="1" vertex="1">
                    <mxGeometry x="256" y="219" width="305" height="60" as="geometry"/>
                </mxCell>
                <mxCell id="31" value="Server Controller" style="text;html=1;strokeColor=none;fillColor=none;align=center;verticalAlign=middle;whiteSpace=wrap;rounded=0;fontColor=#FFFFFF;" parent="1" vertex="1">
                    <mxGeometry x="333" y="219" width="150" height="30" as="geometry"/>
                </mxCell>
                <mxCell id="44" style="edgeStyle=none;html=1;exitX=0.75;exitY=0;exitDx=0;exitDy=0;entryX=0.896;entryY=0.988;entryDx=0;entryDy=0;entryPerimeter=0;fontSize=19;fontColor=#FFFFFF;endArrow=blockThin;endFill=1;strokeWidth=2;" parent="1" source="32" target="29" edge="1">
                    <mxGeometry relative="1" as="geometry"/>
                </mxCell>
                <mxCell id="32" value="" style="rounded=1;whiteSpace=wrap;html=1;fontColor=#004A52;strokeColor=#FFFFFF;fillColor=#00636E;" parent="1" vertex="1">
                    <mxGeometry x="439" y="315.5" width="120" height="107" as="geometry"/>
                </mxCell>
                <mxCell id="33" value="Master node" style="text;html=1;strokeColor=none;fillColor=none;align=center;verticalAlign=middle;whiteSpace=wrap;rounded=0;fontColor=#FFFFFF;" parent="1" vertex="1">
                    <mxGeometry x="462.75" y="322" width="72.5" height="30" as="geometry"/>
                </mxCell>
                <mxCell id="36" value="&lt;h1&gt;Scenario 1&lt;/h1&gt;&lt;div&gt;A client wants the DCN (Distributed Computing Network) to perform two different tasks, contained in both request A and B.&amp;nbsp;&lt;/div&gt;" style="text;html=1;strokeColor=none;fillColor=none;spacing=5;spacingTop=-20;whiteSpace=wrap;overflow=hidden;rounded=0;fontSize=19;fontColor=#FFFFFF;" parent="1" vertex="1">
                    <mxGeometry x="16" y="11" width="750" height="255" as="geometry"/>
                </mxCell>
                <mxCell id="45" value="" style="rounded=1;whiteSpace=wrap;html=1;fontColor=#004A52;strokeColor=#FFFFFF;fillColor=#00636E;" parent="1" vertex="1">
                    <mxGeometry x="612" y="159" width="198" height="249" as="geometry"/>
                </mxCell>
                <mxCell id="46" value="Slave node #0" style="text;html=1;strokeColor=none;fillColor=none;align=center;verticalAlign=middle;whiteSpace=wrap;rounded=0;fontColor=#FFFFFF;" parent="1" vertex="1">
                    <mxGeometry x="667.38" y="161" width="87.25" height="30" as="geometry"/>
                </mxCell>
                <mxCell id="49" value="" style="rounded=1;whiteSpace=wrap;html=1;fontSize=19;fontColor=#FFFFFF;strokeColor=#FFFFFF;fillColor=#009999;" parent="1" vertex="1">
                    <mxGeometry x="622" y="194" width="176" height="91" as="geometry"/>
                </mxCell>
                <mxCell id="50" value="&lt;font style=&quot;font-size: 10px&quot;&gt;ImageTaskModule&lt;/font&gt;" style="text;html=1;strokeColor=none;fillColor=none;align=center;verticalAlign=middle;whiteSpace=wrap;rounded=0;fontColor=#FFFFFF;" parent="1" vertex="1">
                    <mxGeometry x="671.75" y="193" width="72.5" height="30" as="geometry"/>
                </mxCell>
                <mxCell id="51" value="" style="rounded=1;whiteSpace=wrap;html=1;fontSize=19;fontColor=#FFFFFF;strokeColor=#FFFFFF;fillColor=#00CCCC;" parent="1" vertex="1">
                    <mxGeometry x="623" y="294" width="176" height="98" as="geometry"/>
                </mxCell>
                <mxCell id="52" value="&lt;font style=&quot;font-size: 10px&quot;&gt;Yolov5TaskModule&lt;/font&gt;" style="text;html=1;strokeColor=none;fillColor=none;align=center;verticalAlign=middle;whiteSpace=wrap;rounded=0;fontColor=#FFFFFF;" parent="1" vertex="1">
                    <mxGeometry x="671.75" y="295" width="72.5" height="30" as="geometry"/>
                </mxCell>
                <mxCell id="53" value="" style="rounded=1;whiteSpace=wrap;html=1;fontColor=#004A52;strokeColor=#FFFFFF;fillColor=#00636E;" parent="1" vertex="1">
                    <mxGeometry x="609" y="419" width="198" height="135" as="geometry"/>
                </mxCell>
                <mxCell id="54" value="Slave node #0" style="text;html=1;strokeColor=none;fillColor=none;align=center;verticalAlign=middle;whiteSpace=wrap;rounded=0;fontColor=#FFFFFF;" parent="1" vertex="1">
                    <mxGeometry x="664.38" y="421" width="87.25" height="30" as="geometry"/>
                </mxCell>
                <mxCell id="55" value="" style="rounded=1;whiteSpace=wrap;html=1;fontSize=19;fontColor=#FFFFFF;strokeColor=#FFFFFF;fillColor=#009999;" parent="1" vertex="1">
                    <mxGeometry x="619" y="454" width="176" height="91" as="geometry"/>
                </mxCell>
                <mxCell id="56" value="&lt;font style=&quot;font-size: 10px&quot;&gt;ImageTaskModule&lt;/font&gt;" style="text;html=1;strokeColor=none;fillColor=none;align=center;verticalAlign=middle;whiteSpace=wrap;rounded=0;fontColor=#FFFFFF;" parent="1" vertex="1">
                    <mxGeometry x="668.75" y="453" width="72.5" height="30" as="geometry"/>
                </mxCell>
                <mxCell id="64" value="" style="rounded=1;whiteSpace=wrap;html=1;fontColor=#004A52;strokeColor=#FFFFFF;fillColor=#00636E;" parent="1" vertex="1">
                    <mxGeometry x="28" y="370.25" width="120" height="107" as="geometry"/>
                </mxCell>
                <mxCell id="65" value="Request #A" style="rounded=1;whiteSpace=wrap;html=1;fontColor=#ffffff;fillColor=#009999;strokeColor=#FFFFFF;arcSize=22;dashed=1;strokeWidth=2;gradientColor=none;gradientDirection=east;shadow=0;glass=0;sketch=0;" parent="1" vertex="1">
                    <mxGeometry x="36" y="404.25" width="107" height="28" as="geometry"/>
                </mxCell>
                <mxCell id="66" value="Request #B" style="rounded=1;whiteSpace=wrap;html=1;fontColor=#ffffff;fillColor=#00CCCC;strokeColor=#FFFFFF;arcSize=22;dashed=1;strokeWidth=2;sketch=0;" parent="1" vertex="1">
                    <mxGeometry x="36" y="438.25" width="107" height="28" as="geometry"/>
                </mxCell>
                <mxCell id="67" value="Client #0" style="text;html=1;strokeColor=none;fillColor=none;align=center;verticalAlign=middle;whiteSpace=wrap;rounded=0;fontColor=#FFFFFF;" parent="1" vertex="1">
                    <mxGeometry x="57" y="371.25" width="60" height="30" as="geometry"/>
                </mxCell>
                <mxCell id="68" value="" style="rounded=1;whiteSpace=wrap;html=1;fontColor=#004A52;strokeColor=#FFFFFF;fillColor=#00636E;arcSize=11;" parent="1" vertex="1">
                    <mxGeometry x="243" y="175" width="334" height="375" as="geometry"/>
                </mxCell>
                <mxCell id="69" value="&lt;font style=&quot;font-size: 19px&quot;&gt;Server&lt;/font&gt;" style="text;html=1;strokeColor=none;fillColor=none;align=center;verticalAlign=middle;whiteSpace=wrap;rounded=0;fontColor=#FFFFFF;" parent="1" vertex="1">
                    <mxGeometry x="350.5" y="179" width="119" height="30" as="geometry"/>
                </mxCell>
                <mxCell id="71" value="" style="rounded=1;whiteSpace=wrap;html=1;fontColor=#004A52;strokeColor=#FFFFFF;fillColor=#00636E;" parent="1" vertex="1">
                    <mxGeometry x="258" y="319" width="140" height="209" as="geometry"/>
                </mxCell>
                <mxCell id="74" value="Service Server" style="text;html=1;strokeColor=none;fillColor=none;align=center;verticalAlign=middle;whiteSpace=wrap;rounded=0;fontColor=#FFFFFF;" parent="1" vertex="1">
                    <mxGeometry x="282" y="323" width="93" height="30" as="geometry"/>
                </mxCell>
                <mxCell id="77" value="" style="rounded=1;whiteSpace=wrap;html=1;fontSize=19;fontColor=#FFFFFF;strokeColor=#FFFFFF;fillColor=#00636E;" parent="1" vertex="1">
                    <mxGeometry x="257" y="220" width="305" height="60" as="geometry"/>
                </mxCell>
                <mxCell id="78" value="Server Controller" style="text;html=1;strokeColor=none;fillColor=none;align=center;verticalAlign=middle;whiteSpace=wrap;rounded=0;fontColor=#FFFFFF;" parent="1" vertex="1">
                    <mxGeometry x="334" y="220" width="150" height="30" as="geometry"/>
                </mxCell>
                <mxCell id="82" value="" style="rounded=1;whiteSpace=wrap;html=1;fontColor=#004A52;strokeColor=#FFFFFF;fillColor=#00636E;arcSize=16;" parent="1" vertex="1">
                    <mxGeometry x="416" y="316.5" width="144" height="214.5" as="geometry"/>
                </mxCell>
                <mxCell id="83" value="Master node" style="text;html=1;strokeColor=none;fillColor=none;align=center;verticalAlign=middle;whiteSpace=wrap;rounded=0;fontColor=#FFFFFF;" parent="1" vertex="1">
                    <mxGeometry x="451" y="323" width="72.5" height="30" as="geometry"/>
                </mxCell>
                <mxCell id="84" value="" style="rounded=1;whiteSpace=wrap;html=1;fontColor=#004A52;strokeColor=#FFFFFF;fillColor=#00636E;" parent="1" vertex="1">
                    <mxGeometry x="613" y="160" width="198" height="249" as="geometry"/>
                </mxCell>
                <mxCell id="85" value="Slave node #0" style="text;html=1;strokeColor=none;fillColor=none;align=center;verticalAlign=middle;whiteSpace=wrap;rounded=0;fontColor=#FFFFFF;" parent="1" vertex="1">
                    <mxGeometry x="668.38" y="162" width="87.25" height="30" as="geometry"/>
                </mxCell>
                <mxCell id="86" value="" style="rounded=1;whiteSpace=wrap;html=1;fontSize=19;fontColor=#FFFFFF;strokeColor=#FFFFFF;fillColor=#009999;" parent="1" vertex="1">
                    <mxGeometry x="623" y="195" width="176" height="91" as="geometry"/>
                </mxCell>
                <mxCell id="87" value="&lt;font style=&quot;font-size: 10px&quot;&gt;ImageTaskModule&lt;/font&gt;" style="text;html=1;strokeColor=none;fillColor=none;align=center;verticalAlign=middle;whiteSpace=wrap;rounded=0;fontColor=#FFFFFF;" parent="1" vertex="1">
                    <mxGeometry x="672.75" y="194" width="72.5" height="30" as="geometry"/>
                </mxCell>
                <mxCell id="88" value="" style="rounded=1;whiteSpace=wrap;html=1;fontSize=19;fontColor=#FFFFFF;strokeColor=#FFFFFF;fillColor=#00CCCC;" parent="1" vertex="1">
                    <mxGeometry x="624" y="295" width="176" height="98" as="geometry"/>
                </mxCell>
                <mxCell id="89" value="&lt;font style=&quot;font-size: 10px&quot;&gt;Yolov5TaskModule&lt;/font&gt;" style="text;html=1;strokeColor=none;fillColor=none;align=center;verticalAlign=middle;whiteSpace=wrap;rounded=0;fontColor=#FFFFFF;" parent="1" vertex="1">
                    <mxGeometry x="672.75" y="296" width="72.5" height="30" as="geometry"/>
                </mxCell>
                <mxCell id="90" value="" style="rounded=1;whiteSpace=wrap;html=1;fontColor=#004A52;strokeColor=#FFFFFF;fillColor=#00636E;" parent="1" vertex="1">
                    <mxGeometry x="610" y="420" width="198" height="135" as="geometry"/>
                </mxCell>
                <mxCell id="91" value="Slave node #1" style="text;html=1;strokeColor=none;fillColor=none;align=center;verticalAlign=middle;whiteSpace=wrap;rounded=0;fontColor=#FFFFFF;" parent="1" vertex="1">
                    <mxGeometry x="665.38" y="422" width="87.25" height="30" as="geometry"/>
                </mxCell>
                <mxCell id="92" value="" style="rounded=1;whiteSpace=wrap;html=1;fontSize=19;fontColor=#FFFFFF;strokeColor=#FFFFFF;fillColor=#009999;" parent="1" vertex="1">
                    <mxGeometry x="620" y="455" width="176" height="91" as="geometry"/>
                </mxCell>
                <mxCell id="93" value="&lt;font style=&quot;font-size: 10px&quot;&gt;ImageTaskModule&lt;/font&gt;" style="text;html=1;strokeColor=none;fillColor=none;align=center;verticalAlign=middle;whiteSpace=wrap;rounded=0;fontColor=#FFFFFF;" parent="1" vertex="1">
                    <mxGeometry x="669.75" y="454" width="72.5" height="30" as="geometry"/>
                </mxCell>
                <mxCell id="94" value="&lt;font color=&quot;#004a52&quot; size=&quot;1&quot;&gt;&lt;b&gt;STEP 1: &lt;/b&gt;The client #0, after autenticating, sends requests A and B to the server&lt;/font&gt;" style="text;html=1;strokeColor=none;fillColor=#4DB2BD;align=center;verticalAlign=middle;whiteSpace=wrap;rounded=0;fontSize=10;fontColor=#FFFFFF;gradientColor=none;" parent="1" vertex="1">
                    <mxGeometry x="24" y="172" width="200" height="109" as="geometry"/>
                </mxCell>
                <mxCell id="96" value="" style="rounded=1;whiteSpace=wrap;html=1;dashed=1;fontSize=10;fontColor=#004A52;strokeColor=#4DB2BD;fillColor=none;gradientColor=none;arcSize=8;perimeterSpacing=0;strokeWidth=2;" parent="1" vertex="1">
                    <mxGeometry x="9" y="585" width="810" height="414" as="geometry"/>
                </mxCell>
                <mxCell id="100" value="" style="rounded=1;whiteSpace=wrap;html=1;fontColor=#004A52;strokeColor=#FFFFFF;fillColor=#00636E;arcSize=11;" parent="1" vertex="1">
                    <mxGeometry x="243" y="608" width="334" height="262" as="geometry"/>
                </mxCell>
                <mxCell id="101" value="&lt;font style=&quot;font-size: 19px&quot;&gt;Server&lt;/font&gt;" style="text;html=1;strokeColor=none;fillColor=none;align=center;verticalAlign=middle;whiteSpace=wrap;rounded=0;fontColor=#FFFFFF;" parent="1" vertex="1">
                    <mxGeometry x="350.5" y="612" width="119" height="30" as="geometry"/>
                </mxCell>
                <mxCell id="102" style="edgeStyle=none;html=1;exitX=0.75;exitY=0;exitDx=0;exitDy=0;entryX=0.301;entryY=1.008;entryDx=0;entryDy=0;entryPerimeter=0;fontSize=19;fontColor=#FFFFFF;endArrow=blockThin;endFill=1;strokeWidth=2;" parent="1" source="103" target="109" edge="1">
                    <mxGeometry relative="1" as="geometry"/>
                </mxCell>
                <mxCell id="103" value="" style="rounded=1;whiteSpace=wrap;html=1;fontColor=#004A52;strokeColor=#FFFFFF;fillColor=#00636E;" parent="1" vertex="1">
                    <mxGeometry x="258" y="752" width="120" height="107" as="geometry"/>
                </mxCell>
                <mxCell id="106" value="Service Server" style="text;html=1;strokeColor=none;fillColor=none;align=center;verticalAlign=middle;whiteSpace=wrap;rounded=0;fontColor=#FFFFFF;" parent="1" vertex="1">
                    <mxGeometry x="272" y="756" width="93" height="30" as="geometry"/>
                </mxCell>
                <mxCell id="107" style="edgeStyle=none;html=1;exitX=0.105;exitY=0.994;exitDx=0;exitDy=0;entryX=0.25;entryY=0;entryDx=0;entryDy=0;fontSize=19;fontColor=#FFFFFF;endArrow=none;endFill=0;strokeWidth=2;exitPerimeter=0;" parent="1" source="109" target="103" edge="1">
                    <mxGeometry relative="1" as="geometry"/>
                </mxCell>
                <mxCell id="108" style="edgeStyle=none;html=1;exitX=0.701;exitY=1.008;exitDx=0;exitDy=0;entryX=0.25;entryY=0;entryDx=0;entryDy=0;fontSize=19;fontColor=#FFFFFF;endArrow=blockThin;endFill=1;strokeWidth=2;exitPerimeter=0;" parent="1" source="109" target="114" edge="1">
                    <mxGeometry relative="1" as="geometry"/>
                </mxCell>
                <mxCell id="109" value="" style="rounded=1;whiteSpace=wrap;html=1;fontSize=19;fontColor=#FFFFFF;strokeColor=#FFFFFF;fillColor=#00636E;" parent="1" vertex="1">
                    <mxGeometry x="257" y="653" width="305" height="60" as="geometry"/>
                </mxCell>
                <mxCell id="110" value="Server Controller" style="text;html=1;strokeColor=none;fillColor=none;align=center;verticalAlign=middle;whiteSpace=wrap;rounded=0;fontColor=#FFFFFF;" parent="1" vertex="1">
                    <mxGeometry x="334" y="653" width="150" height="30" as="geometry"/>
                </mxCell>
                <mxCell id="111" style="edgeStyle=none;html=1;exitX=0.75;exitY=0;exitDx=0;exitDy=0;entryX=0.896;entryY=0.988;entryDx=0;entryDy=0;entryPerimeter=0;fontSize=19;fontColor=#FFFFFF;endArrow=blockThin;endFill=1;strokeWidth=2;" parent="1" source="114" target="109" edge="1">
                    <mxGeometry relative="1" as="geometry"/>
                </mxCell>
                <mxCell id="114" value="" style="rounded=1;whiteSpace=wrap;html=1;fontColor=#004A52;strokeColor=#FFFFFF;fillColor=#00636E;" parent="1" vertex="1">
                    <mxGeometry x="440" y="749.5" width="120" height="107" as="geometry"/>
                </mxCell>
                <mxCell id="115" value="Master node" style="text;html=1;strokeColor=none;fillColor=none;align=center;verticalAlign=middle;whiteSpace=wrap;rounded=0;fontColor=#FFFFFF;" parent="1" vertex="1">
                    <mxGeometry x="463.75" y="756" width="72.5" height="30" as="geometry"/>
                </mxCell>
                <mxCell id="116" value="" style="rounded=1;whiteSpace=wrap;html=1;fontColor=#004A52;strokeColor=#FFFFFF;fillColor=#00636E;" parent="1" vertex="1">
                    <mxGeometry x="613" y="593" width="198" height="249" as="geometry"/>
                </mxCell>
                <mxCell id="117" value="Slave node #0" style="text;html=1;strokeColor=none;fillColor=none;align=center;verticalAlign=middle;whiteSpace=wrap;rounded=0;fontColor=#FFFFFF;" parent="1" vertex="1">
                    <mxGeometry x="668.38" y="595" width="87.25" height="30" as="geometry"/>
                </mxCell>
                <mxCell id="118" value="" style="rounded=1;whiteSpace=wrap;html=1;fontSize=19;fontColor=#FFFFFF;strokeColor=#FFFFFF;fillColor=#009999;" parent="1" vertex="1">
                    <mxGeometry x="623" y="628" width="176" height="91" as="geometry"/>
                </mxCell>
                <mxCell id="119" value="&lt;font style=&quot;font-size: 10px&quot;&gt;ImageTaskModule&lt;/font&gt;" style="text;html=1;strokeColor=none;fillColor=none;align=center;verticalAlign=middle;whiteSpace=wrap;rounded=0;fontColor=#FFFFFF;" parent="1" vertex="1">
                    <mxGeometry x="672.75" y="627" width="72.5" height="30" as="geometry"/>
                </mxCell>
                <mxCell id="120" value="" style="rounded=1;whiteSpace=wrap;html=1;fontSize=19;fontColor=#FFFFFF;strokeColor=#FFFFFF;fillColor=#00CCCC;" parent="1" vertex="1">
                    <mxGeometry x="624" y="728" width="176" height="98" as="geometry"/>
                </mxCell>
                <mxCell id="121" value="&lt;font style=&quot;font-size: 10px&quot;&gt;Yolov5TaskModule&lt;/font&gt;" style="text;html=1;strokeColor=none;fillColor=none;align=center;verticalAlign=middle;whiteSpace=wrap;rounded=0;fontColor=#FFFFFF;" parent="1" vertex="1">
                    <mxGeometry x="672.75" y="729" width="72.5" height="30" as="geometry"/>
                </mxCell>
                <mxCell id="122" value="" style="rounded=1;whiteSpace=wrap;html=1;fontColor=#004A52;strokeColor=#FFFFFF;fillColor=#00636E;" parent="1" vertex="1">
                    <mxGeometry x="610" y="853" width="198" height="135" as="geometry"/>
                </mxCell>
                <mxCell id="123" value="Slave node #0" style="text;html=1;strokeColor=none;fillColor=none;align=center;verticalAlign=middle;whiteSpace=wrap;rounded=0;fontColor=#FFFFFF;" parent="1" vertex="1">
                    <mxGeometry x="665.38" y="855" width="87.25" height="30" as="geometry"/>
                </mxCell>
                <mxCell id="124" value="" style="rounded=1;whiteSpace=wrap;html=1;fontSize=19;fontColor=#FFFFFF;strokeColor=#FFFFFF;fillColor=#009999;" parent="1" vertex="1">
                    <mxGeometry x="620" y="888" width="176" height="91" as="geometry"/>
                </mxCell>
                <mxCell id="125" value="&lt;font style=&quot;font-size: 10px&quot;&gt;ImageTaskModule&lt;/font&gt;" style="text;html=1;strokeColor=none;fillColor=none;align=center;verticalAlign=middle;whiteSpace=wrap;rounded=0;fontColor=#FFFFFF;" parent="1" vertex="1">
                    <mxGeometry x="669.75" y="887" width="72.5" height="30" as="geometry"/>
                </mxCell>
                <mxCell id="130" value="" style="rounded=1;whiteSpace=wrap;html=1;fontColor=#004A52;strokeColor=#FFFFFF;fillColor=#00636E;arcSize=11;" parent="1" vertex="1">
                    <mxGeometry x="244" y="609" width="334" height="377" as="geometry"/>
                </mxCell>
                <mxCell id="131" value="&lt;font style=&quot;font-size: 19px&quot;&gt;Server&lt;/font&gt;" style="text;html=1;strokeColor=none;fillColor=none;align=center;verticalAlign=middle;whiteSpace=wrap;rounded=0;fontColor=#FFFFFF;" parent="1" vertex="1">
                    <mxGeometry x="351.5" y="613" width="119" height="30" as="geometry"/>
                </mxCell>
                <mxCell id="139" value="" style="rounded=1;whiteSpace=wrap;html=1;fontSize=19;fontColor=#FFFFFF;strokeColor=#FFFFFF;fillColor=#00636E;" parent="1" vertex="1">
                    <mxGeometry x="258" y="654" width="305" height="60" as="geometry"/>
                </mxCell>
                <mxCell id="140" value="Server Controller" style="text;html=1;strokeColor=none;fillColor=none;align=center;verticalAlign=middle;whiteSpace=wrap;rounded=0;fontColor=#FFFFFF;" parent="1" vertex="1">
                    <mxGeometry x="335" y="654" width="150" height="30" as="geometry"/>
                </mxCell>
                <mxCell id="144" value="" style="rounded=1;whiteSpace=wrap;html=1;fontColor=#004A52;strokeColor=#FFFFFF;fillColor=#00636E;" parent="1" vertex="1">
                    <mxGeometry x="421" y="750.5" width="140" height="221.5" as="geometry"/>
                </mxCell>
                <mxCell id="145" value="Master node" style="text;html=1;strokeColor=none;fillColor=none;align=center;verticalAlign=middle;whiteSpace=wrap;rounded=0;fontColor=#FFFFFF;" parent="1" vertex="1">
                    <mxGeometry x="457" y="756" width="72.5" height="30" as="geometry"/>
                </mxCell>
                <mxCell id="146" value="" style="rounded=1;whiteSpace=wrap;html=1;fontColor=#004A52;strokeColor=#FFFFFF;fillColor=#00636E;" parent="1" vertex="1">
                    <mxGeometry x="614" y="594" width="198" height="249" as="geometry"/>
                </mxCell>
                <mxCell id="147" value="Slave node #0" style="text;html=1;strokeColor=none;fillColor=none;align=center;verticalAlign=middle;whiteSpace=wrap;rounded=0;fontColor=#FFFFFF;" parent="1" vertex="1">
                    <mxGeometry x="669.38" y="596" width="87.25" height="30" as="geometry"/>
                </mxCell>
                <mxCell id="148" value="" style="rounded=1;whiteSpace=wrap;html=1;fontSize=19;fontColor=#FFFFFF;strokeColor=#FFFFFF;fillColor=#009999;" parent="1" vertex="1">
                    <mxGeometry x="624" y="629" width="176" height="91" as="geometry"/>
                </mxCell>
                <mxCell id="149" value="&lt;font style=&quot;font-size: 10px&quot;&gt;ImageTaskModule&lt;/font&gt;" style="text;html=1;strokeColor=none;fillColor=none;align=center;verticalAlign=middle;whiteSpace=wrap;rounded=0;fontColor=#FFFFFF;" parent="1" vertex="1">
                    <mxGeometry x="673.75" y="628" width="72.5" height="30" as="geometry"/>
                </mxCell>
                <mxCell id="150" value="" style="rounded=1;whiteSpace=wrap;html=1;fontSize=19;fontColor=#FFFFFF;strokeColor=#FFFFFF;fillColor=#00CCCC;" parent="1" vertex="1">
                    <mxGeometry x="625" y="729" width="176" height="98" as="geometry"/>
                </mxCell>
                <mxCell id="151" value="&lt;font style=&quot;font-size: 10px&quot;&gt;Yolov5TaskModule&lt;/font&gt;" style="text;html=1;strokeColor=none;fillColor=none;align=center;verticalAlign=middle;whiteSpace=wrap;rounded=0;fontColor=#FFFFFF;" parent="1" vertex="1">
                    <mxGeometry x="673.75" y="730" width="72.5" height="30" as="geometry"/>
                </mxCell>
                <mxCell id="152" value="" style="rounded=1;whiteSpace=wrap;html=1;fontColor=#004A52;strokeColor=#FFFFFF;fillColor=#00636E;" parent="1" vertex="1">
                    <mxGeometry x="611" y="854" width="198" height="135" as="geometry"/>
                </mxCell>
                <mxCell id="153" value="Slave node #1" style="text;html=1;strokeColor=none;fillColor=none;align=center;verticalAlign=middle;whiteSpace=wrap;rounded=0;fontColor=#FFFFFF;" parent="1" vertex="1">
                    <mxGeometry x="666.38" y="856" width="87.25" height="30" as="geometry"/>
                </mxCell>
                <mxCell id="154" value="" style="rounded=1;whiteSpace=wrap;html=1;fontSize=19;fontColor=#FFFFFF;strokeColor=#FFFFFF;fillColor=#009999;" parent="1" vertex="1">
                    <mxGeometry x="621" y="889" width="176" height="91" as="geometry"/>
                </mxCell>
                <mxCell id="155" value="&lt;font style=&quot;font-size: 10px&quot;&gt;ImageTaskModule&lt;/font&gt;" style="text;html=1;strokeColor=none;fillColor=none;align=center;verticalAlign=middle;whiteSpace=wrap;rounded=0;fontColor=#FFFFFF;" parent="1" vertex="1">
                    <mxGeometry x="670.75" y="888" width="72.5" height="30" as="geometry"/>
                </mxCell>
                <mxCell id="156" value="&lt;font color=&quot;#004a52&quot; size=&quot;1&quot;&gt;&lt;b&gt;STEP 2: &lt;/b&gt;The server routers internally the new request from the Service Server's request inbox to the Master node. Then the request are partitioned into tasks, and stacked in the &lt;/font&gt;&lt;span style=&quot;color: rgb(0 , 74 , 82) ; font-size: x-small&quot;&gt;Master node's&lt;/span&gt;&lt;font color=&quot;#004a52&quot; size=&quot;1&quot;&gt;&lt;br&gt;&lt;/font&gt;&lt;span style=&quot;color: rgb(0 , 74 , 82) ; font-size: x-small&quot;&gt;task&amp;nbsp;&lt;/span&gt;&lt;font color=&quot;#004a52&quot; size=&quot;1&quot;&gt;inbox.&lt;/font&gt;" style="text;html=1;strokeColor=none;fillColor=#4DB2BD;align=center;verticalAlign=middle;whiteSpace=wrap;rounded=0;fontSize=10;fontColor=#FFFFFF;gradientColor=none;" parent="1" vertex="1">
                    <mxGeometry x="25" y="606" width="200" height="109" as="geometry"/>
                </mxCell>
                <mxCell id="159" value="" style="rounded=1;whiteSpace=wrap;html=1;fontColor=#004A52;strokeColor=#FFFFFF;fillColor=#00636E;" parent="1" vertex="1">
                    <mxGeometry x="264" y="354" width="129" height="91" as="geometry"/>
                </mxCell>
                <mxCell id="160" value="Request inbox" style="text;html=1;strokeColor=none;fillColor=none;align=center;verticalAlign=middle;whiteSpace=wrap;rounded=0;fontColor=#FFFFFF;" parent="1" vertex="1">
                    <mxGeometry x="279" y="351" width="93" height="30" as="geometry"/>
                </mxCell>
                <mxCell id="161" value="" style="rounded=1;whiteSpace=wrap;html=1;fontColor=#004A52;strokeColor=#FFFFFF;fillColor=#00636E;" parent="1" vertex="1">
                    <mxGeometry x="263.5" y="450" width="129" height="68" as="geometry"/>
                </mxCell>
                <mxCell id="162" value="filesDone" style="text;html=1;strokeColor=none;fillColor=none;align=center;verticalAlign=middle;whiteSpace=wrap;rounded=0;fontColor=#FFFFFF;" parent="1" vertex="1">
                    <mxGeometry x="279" y="448" width="104" height="30" as="geometry"/>
                </mxCell>
                <mxCell id="163" style="edgeStyle=none;html=1;exitX=1;exitY=0.5;exitDx=0;exitDy=0;entryX=0;entryY=0.5;entryDx=0;entryDy=0;fontSize=10;fontColor=#004A52;endArrow=blockThin;endFill=1;strokeWidth=2;" parent="1" source="64" target="71" edge="1">
                    <mxGeometry relative="1" as="geometry"/>
                </mxCell>
                <mxCell id="166" value="" style="rounded=1;whiteSpace=wrap;html=1;fontColor=#004A52;strokeColor=#FFFFFF;fillColor=#00636E;" parent="1" vertex="1">
                    <mxGeometry x="261" y="750.5" width="149" height="220.5" as="geometry"/>
                </mxCell>
                <mxCell id="167" value="Service Server" style="text;html=1;strokeColor=none;fillColor=none;align=center;verticalAlign=middle;whiteSpace=wrap;rounded=0;fontColor=#FFFFFF;" parent="1" vertex="1">
                    <mxGeometry x="294" y="754.5" width="93" height="30" as="geometry"/>
                </mxCell>
                <mxCell id="168" value="" style="rounded=1;whiteSpace=wrap;html=1;fontColor=#004A52;strokeColor=#FFFFFF;fillColor=#00636E;" parent="1" vertex="1">
                    <mxGeometry x="270" y="786" width="129" height="110" as="geometry"/>
                </mxCell>
                <mxCell id="187" style="edgeStyle=none;html=1;exitX=0.5;exitY=0;exitDx=0;exitDy=0;entryX=0.5;entryY=0;entryDx=0;entryDy=0;fontSize=10;fontColor=#004A52;endArrow=open;endFill=0;strokeWidth=2;dashed=1;" parent="1" source="166" target="144" edge="1">
                    <mxGeometry relative="1" as="geometry">
                        <Array as="points">
                            <mxPoint x="337" y="694"/>
                            <mxPoint x="491" y="693"/>
                        </Array>
                    </mxGeometry>
                </mxCell>
                <mxCell id="169" value="Request inbox" style="text;html=1;strokeColor=none;fillColor=none;align=center;verticalAlign=middle;whiteSpace=wrap;rounded=0;fontColor=#FFFFFF;" parent="1" vertex="1">
                    <mxGeometry x="288" y="788" width="93" height="30" as="geometry"/>
                </mxCell>
                <mxCell id="170" value="" style="rounded=1;whiteSpace=wrap;html=1;fontColor=#004A52;strokeColor=#FFFFFF;fillColor=#00636E;" parent="1" vertex="1">
                    <mxGeometry x="272" y="902" width="129" height="53" as="geometry"/>
                </mxCell>
                <mxCell id="188" style="edgeStyle=none;html=1;exitX=1;exitY=0.5;exitDx=0;exitDy=0;entryX=0;entryY=0.5;entryDx=0;entryDy=0;dashed=1;fontSize=10;fontColor=#004A52;endArrow=none;endFill=0;strokeWidth=2;" parent="1" source="171" target="166" edge="1">
                    <mxGeometry relative="1" as="geometry"/>
                </mxCell>
                <mxCell id="171" value="" style="rounded=1;whiteSpace=wrap;html=1;fontColor=#004A52;strokeColor=#FFFFFF;fillColor=#00636E;" parent="1" vertex="1">
                    <mxGeometry x="34" y="807.75" width="120" height="107" as="geometry"/>
                </mxCell>
                <mxCell id="174" value="Client #0" style="text;html=1;strokeColor=none;fillColor=none;align=center;verticalAlign=middle;whiteSpace=wrap;rounded=0;fontColor=#FFFFFF;" parent="1" vertex="1">
                    <mxGeometry x="63" y="808.75" width="60" height="30" as="geometry"/>
                </mxCell>
                <mxCell id="177" value="Request #A" style="rounded=1;whiteSpace=wrap;html=1;fontColor=#ffffff;fillColor=#009999;strokeColor=#006EAF;arcSize=22;" parent="1" vertex="1">
                    <mxGeometry x="276" y="376" width="107" height="28" as="geometry"/>
                </mxCell>
                <mxCell id="178" value="Request #B" style="rounded=1;whiteSpace=wrap;html=1;fontColor=#ffffff;fillColor=#00CCCC;strokeColor=#FFFFFF;arcSize=22;" parent="1" vertex="1">
                    <mxGeometry x="275.5" y="410.25" width="107" height="28" as="geometry"/>
                </mxCell>
                <mxCell id="179" value="" style="rounded=1;whiteSpace=wrap;html=1;fontColor=#004A52;strokeColor=#FFFFFF;fillColor=#00636E;" parent="1" vertex="1">
                    <mxGeometry x="427" y="787" width="129" height="111" as="geometry"/>
                </mxCell>
                <mxCell id="180" value="" style="rounded=1;whiteSpace=wrap;html=1;fontColor=#004A52;strokeColor=#FFFFFF;fillColor=#00636E;" parent="1" vertex="1">
                    <mxGeometry x="426.5" y="902" width="129" height="55" as="geometry"/>
                </mxCell>
                <mxCell id="181" value="Task outbox" style="text;html=1;strokeColor=none;fillColor=none;align=center;verticalAlign=middle;whiteSpace=wrap;rounded=0;fontColor=#FFFFFF;" parent="1" vertex="1">
                    <mxGeometry x="445" y="901" width="93" height="30" as="geometry"/>
                </mxCell>
                <mxCell id="182" value="Task inbox" style="text;html=1;strokeColor=none;fillColor=none;align=center;verticalAlign=middle;whiteSpace=wrap;rounded=0;fontColor=#FFFFFF;" parent="1" vertex="1">
                    <mxGeometry x="445" y="784.5" width="93" height="30" as="geometry"/>
                </mxCell>
                <mxCell id="183" value="Task#B0" style="rounded=1;whiteSpace=wrap;html=1;fontColor=#ffffff;fillColor=#00CCCC;strokeColor=#FFFFFF;arcSize=22;" parent="1" vertex="1">
                    <mxGeometry x="495.75" y="839" width="48.75" height="25" as="geometry"/>
                </mxCell>
                <mxCell id="184" value="Task#A0" style="rounded=1;whiteSpace=wrap;html=1;fontColor=#ffffff;fillColor=#009999;strokeColor=#006EAF;arcSize=22;" parent="1" vertex="1">
                    <mxGeometry x="437.5" y="809" width="50.5" height="26" as="geometry"/>
                </mxCell>
                <mxCell id="185" value="Request #A" style="rounded=1;whiteSpace=wrap;html=1;fontColor=#ffffff;fillColor=#009999;strokeColor=#FFFFFF;arcSize=22;dashed=1;strokeWidth=2;gradientColor=none;gradientDirection=east;shadow=0;glass=0;sketch=0;" parent="1" vertex="1">
                    <mxGeometry x="281" y="821" width="107" height="28" as="geometry"/>
                </mxCell>
                <mxCell id="186" value="Request #B" style="rounded=1;whiteSpace=wrap;html=1;fontColor=#ffffff;fillColor=#00CCCC;strokeColor=#FFFFFF;arcSize=22;dashed=1;strokeWidth=2;sketch=0;" parent="1" vertex="1">
                    <mxGeometry x="281" y="855" width="107" height="28" as="geometry"/>
                </mxCell>
                <mxCell id="189" value="" style="rounded=1;whiteSpace=wrap;html=1;dashed=1;fontSize=10;fontColor=#004A52;strokeColor=#4DB2BD;fillColor=none;gradientColor=none;arcSize=8;perimeterSpacing=0;strokeWidth=2;" parent="1" vertex="1">
                    <mxGeometry x="6" y="1011" width="810" height="440" as="geometry"/>
                </mxCell>
                <mxCell id="191" value="&lt;font style=&quot;font-size: 19px&quot;&gt;Server&lt;/font&gt;" style="text;html=1;strokeColor=none;fillColor=none;align=center;verticalAlign=middle;whiteSpace=wrap;rounded=0;fontColor=#FFFFFF;" parent="1" vertex="1">
                    <mxGeometry x="350.5" y="1040" width="119" height="30" as="geometry"/>
                </mxCell>
                <mxCell id="192" style="edgeStyle=none;html=1;exitX=0.75;exitY=0;exitDx=0;exitDy=0;entryX=0.301;entryY=1.008;entryDx=0;entryDy=0;entryPerimeter=0;fontSize=19;fontColor=#FFFFFF;endArrow=blockThin;endFill=1;strokeWidth=2;" parent="1" source="193" target="197" edge="1">
                    <mxGeometry relative="1" as="geometry"/>
                </mxCell>
                <mxCell id="193" value="" style="rounded=1;whiteSpace=wrap;html=1;fontColor=#004A52;strokeColor=#FFFFFF;fillColor=#00636E;" parent="1" vertex="1">
                    <mxGeometry x="258" y="1180" width="120" height="107" as="geometry"/>
                </mxCell>
                <mxCell id="194" value="Service Server" style="text;html=1;strokeColor=none;fillColor=none;align=center;verticalAlign=middle;whiteSpace=wrap;rounded=0;fontColor=#FFFFFF;" parent="1" vertex="1">
                    <mxGeometry x="272" y="1184" width="93" height="30" as="geometry"/>
                </mxCell>
                <mxCell id="195" style="edgeStyle=none;html=1;exitX=0.105;exitY=0.994;exitDx=0;exitDy=0;entryX=0.25;entryY=0;entryDx=0;entryDy=0;fontSize=19;fontColor=#FFFFFF;endArrow=none;endFill=0;strokeWidth=2;exitPerimeter=0;" parent="1" source="197" target="193" edge="1">
                    <mxGeometry relative="1" as="geometry"/>
                </mxCell>
                <mxCell id="196" style="edgeStyle=none;html=1;exitX=0.701;exitY=1.008;exitDx=0;exitDy=0;entryX=0.25;entryY=0;entryDx=0;entryDy=0;fontSize=19;fontColor=#FFFFFF;endArrow=blockThin;endFill=1;strokeWidth=2;exitPerimeter=0;" parent="1" source="197" target="200" edge="1">
                    <mxGeometry relative="1" as="geometry"/>
                </mxCell>
                <mxCell id="197" value="" style="rounded=1;whiteSpace=wrap;html=1;fontSize=19;fontColor=#FFFFFF;strokeColor=#FFFFFF;fillColor=#00636E;" parent="1" vertex="1">
                    <mxGeometry x="257" y="1081" width="305" height="60" as="geometry"/>
                </mxCell>
                <mxCell id="198" value="Server Controller" style="text;html=1;strokeColor=none;fillColor=none;align=center;verticalAlign=middle;whiteSpace=wrap;rounded=0;fontColor=#FFFFFF;" parent="1" vertex="1">
                    <mxGeometry x="334" y="1081" width="150" height="30" as="geometry"/>
                </mxCell>
                <mxCell id="199" style="edgeStyle=none;html=1;exitX=0.75;exitY=0;exitDx=0;exitDy=0;entryX=0.896;entryY=0.988;entryDx=0;entryDy=0;entryPerimeter=0;fontSize=19;fontColor=#FFFFFF;endArrow=blockThin;endFill=1;strokeWidth=2;" parent="1" source="200" target="197" edge="1">
                    <mxGeometry relative="1" as="geometry"/>
                </mxCell>
                <mxCell id="200" value="" style="rounded=1;whiteSpace=wrap;html=1;fontColor=#004A52;strokeColor=#FFFFFF;fillColor=#00636E;" parent="1" vertex="1">
                    <mxGeometry x="440" y="1177.5" width="120" height="107" as="geometry"/>
                </mxCell>
                <mxCell id="201" value="Master node" style="text;html=1;strokeColor=none;fillColor=none;align=center;verticalAlign=middle;whiteSpace=wrap;rounded=0;fontColor=#FFFFFF;" parent="1" vertex="1">
                    <mxGeometry x="463.75" y="1184" width="72.5" height="30" as="geometry"/>
                </mxCell>
                <mxCell id="202" value="" style="rounded=1;whiteSpace=wrap;html=1;fontColor=#004A52;strokeColor=#FFFFFF;fillColor=#00636E;" parent="1" vertex="1">
                    <mxGeometry x="613" y="1021" width="198" height="249" as="geometry"/>
                </mxCell>
                <mxCell id="203" value="Slave node #0" style="text;html=1;strokeColor=none;fillColor=none;align=center;verticalAlign=middle;whiteSpace=wrap;rounded=0;fontColor=#FFFFFF;" parent="1" vertex="1">
                    <mxGeometry x="668.38" y="1023" width="87.25" height="30" as="geometry"/>
                </mxCell>
                <mxCell id="204" value="" style="rounded=1;whiteSpace=wrap;html=1;fontSize=19;fontColor=#FFFFFF;strokeColor=#FFFFFF;fillColor=#009999;" parent="1" vertex="1">
                    <mxGeometry x="623" y="1056" width="176" height="91" as="geometry"/>
                </mxCell>
                <mxCell id="205" value="&lt;font style=&quot;font-size: 10px&quot;&gt;ImageTaskModule&lt;/font&gt;" style="text;html=1;strokeColor=none;fillColor=none;align=center;verticalAlign=middle;whiteSpace=wrap;rounded=0;fontColor=#FFFFFF;" parent="1" vertex="1">
                    <mxGeometry x="672.75" y="1055" width="72.5" height="30" as="geometry"/>
                </mxCell>
                <mxCell id="206" value="" style="rounded=1;whiteSpace=wrap;html=1;fontSize=19;fontColor=#FFFFFF;strokeColor=#FFFFFF;fillColor=#00CCCC;" parent="1" vertex="1">
                    <mxGeometry x="624" y="1156" width="176" height="98" as="geometry"/>
                </mxCell>
                <mxCell id="207" value="&lt;font style=&quot;font-size: 10px&quot;&gt;Yolov5TaskModule&lt;/font&gt;" style="text;html=1;strokeColor=none;fillColor=none;align=center;verticalAlign=middle;whiteSpace=wrap;rounded=0;fontColor=#FFFFFF;" parent="1" vertex="1">
                    <mxGeometry x="672.75" y="1157" width="72.5" height="30" as="geometry"/>
                </mxCell>
                <mxCell id="208" value="" style="rounded=1;whiteSpace=wrap;html=1;fontColor=#004A52;strokeColor=#FFFFFF;fillColor=#00636E;" parent="1" vertex="1">
                    <mxGeometry x="610" y="1281" width="198" height="135" as="geometry"/>
                </mxCell>
                <mxCell id="209" value="Slave node #0" style="text;html=1;strokeColor=none;fillColor=none;align=center;verticalAlign=middle;whiteSpace=wrap;rounded=0;fontColor=#FFFFFF;" parent="1" vertex="1">
                    <mxGeometry x="665.38" y="1283" width="87.25" height="30" as="geometry"/>
                </mxCell>
                <mxCell id="210" value="" style="rounded=1;whiteSpace=wrap;html=1;fontSize=19;fontColor=#FFFFFF;strokeColor=#FFFFFF;fillColor=#009999;" parent="1" vertex="1">
                    <mxGeometry x="620" y="1316" width="176" height="91" as="geometry"/>
                </mxCell>
                <mxCell id="211" value="&lt;font style=&quot;font-size: 10px&quot;&gt;ImageTaskModule&lt;/font&gt;" style="text;html=1;strokeColor=none;fillColor=none;align=center;verticalAlign=middle;whiteSpace=wrap;rounded=0;fontColor=#FFFFFF;" parent="1" vertex="1">
                    <mxGeometry x="669.75" y="1315" width="72.5" height="30" as="geometry"/>
                </mxCell>
                <mxCell id="212" value="" style="rounded=1;whiteSpace=wrap;html=1;fontColor=#004A52;strokeColor=#FFFFFF;fillColor=#00636E;arcSize=11;" parent="1" vertex="1">
                    <mxGeometry x="244" y="1037" width="334" height="377" as="geometry"/>
                </mxCell>
                <mxCell id="213" value="&lt;font style=&quot;font-size: 19px&quot;&gt;Server&lt;/font&gt;" style="text;html=1;strokeColor=none;fillColor=none;align=center;verticalAlign=middle;whiteSpace=wrap;rounded=0;fontColor=#FFFFFF;" parent="1" vertex="1">
                    <mxGeometry x="351.5" y="1041" width="119" height="30" as="geometry"/>
                </mxCell>
                <mxCell id="214" value="" style="rounded=1;whiteSpace=wrap;html=1;fontSize=19;fontColor=#FFFFFF;strokeColor=#FFFFFF;fillColor=#00636E;" parent="1" vertex="1">
                    <mxGeometry x="258" y="1082" width="305" height="60" as="geometry"/>
                </mxCell>
                <mxCell id="215" value="Server Controller" style="text;html=1;strokeColor=none;fillColor=none;align=center;verticalAlign=middle;whiteSpace=wrap;rounded=0;fontColor=#FFFFFF;" parent="1" vertex="1">
                    <mxGeometry x="335" y="1082" width="150" height="30" as="geometry"/>
                </mxCell>
                <mxCell id="216" value="" style="rounded=1;whiteSpace=wrap;html=1;fontColor=#004A52;strokeColor=#FFFFFF;fillColor=#00636E;" parent="1" vertex="1">
                    <mxGeometry x="421" y="1178.5" width="140" height="221.5" as="geometry"/>
                </mxCell>
                <mxCell id="217" value="Master node" style="text;html=1;strokeColor=none;fillColor=none;align=center;verticalAlign=middle;whiteSpace=wrap;rounded=0;fontColor=#FFFFFF;" parent="1" vertex="1">
                    <mxGeometry x="455.25" y="1184" width="72.5" height="30" as="geometry"/>
                </mxCell>
                <mxCell id="218" value="" style="rounded=1;whiteSpace=wrap;html=1;fontColor=#004A52;strokeColor=#FFFFFF;fillColor=#00636E;" parent="1" vertex="1">
                    <mxGeometry x="614" y="1022" width="198" height="249" as="geometry"/>
                </mxCell>
                <mxCell id="219" value="Slave node #0" style="text;html=1;strokeColor=none;fillColor=none;align=center;verticalAlign=middle;whiteSpace=wrap;rounded=0;fontColor=#FFFFFF;" parent="1" vertex="1">
                    <mxGeometry x="669.38" y="1024" width="87.25" height="30" as="geometry"/>
                </mxCell>
                <mxCell id="220" value="" style="rounded=1;whiteSpace=wrap;html=1;fontSize=19;fontColor=#FFFFFF;strokeColor=#FFFFFF;fillColor=#009999;" parent="1" vertex="1">
                    <mxGeometry x="624" y="1057" width="176" height="91" as="geometry"/>
                </mxCell>
                <mxCell id="221" value="&lt;font style=&quot;font-size: 10px&quot;&gt;ImageTaskModule&lt;/font&gt;" style="text;html=1;strokeColor=none;fillColor=none;align=center;verticalAlign=middle;whiteSpace=wrap;rounded=0;fontColor=#FFFFFF;" parent="1" vertex="1">
                    <mxGeometry x="673.75" y="1056" width="72.5" height="30" as="geometry"/>
                </mxCell>
                <mxCell id="222" value="" style="rounded=1;whiteSpace=wrap;html=1;fontSize=19;fontColor=#FFFFFF;strokeColor=#FFFFFF;fillColor=#00CCCC;" parent="1" vertex="1">
                    <mxGeometry x="625" y="1157" width="176" height="98" as="geometry"/>
                </mxCell>
                <mxCell id="223" value="&lt;font style=&quot;font-size: 10px&quot;&gt;Yolov5TaskModule&lt;/font&gt;" style="text;html=1;strokeColor=none;fillColor=none;align=center;verticalAlign=middle;whiteSpace=wrap;rounded=0;fontColor=#FFFFFF;" parent="1" vertex="1">
                    <mxGeometry x="673.75" y="1158" width="72.5" height="30" as="geometry"/>
                </mxCell>
                <mxCell id="224" value="" style="rounded=1;whiteSpace=wrap;html=1;fontColor=#004A52;strokeColor=#FFFFFF;fillColor=#00636E;" parent="1" vertex="1">
                    <mxGeometry x="611" y="1282" width="198" height="135" as="geometry"/>
                </mxCell>
                <mxCell id="225" value="Slave node #1" style="text;html=1;strokeColor=none;fillColor=none;align=center;verticalAlign=middle;whiteSpace=wrap;rounded=0;fontColor=#FFFFFF;" parent="1" vertex="1">
                    <mxGeometry x="666.38" y="1284" width="87.25" height="30" as="geometry"/>
                </mxCell>
                <mxCell id="226" value="" style="rounded=1;whiteSpace=wrap;html=1;fontSize=19;fontColor=#FFFFFF;strokeColor=#FFFFFF;fillColor=#009999;" parent="1" vertex="1">
                    <mxGeometry x="621" y="1317" width="176" height="91" as="geometry"/>
                </mxCell>
                <mxCell id="227" value="&lt;font style=&quot;font-size: 10px&quot;&gt;ImageTaskModule&lt;/font&gt;" style="text;html=1;strokeColor=none;fillColor=none;align=center;verticalAlign=middle;whiteSpace=wrap;rounded=0;fontColor=#FFFFFF;" parent="1" vertex="1">
                    <mxGeometry x="670.75" y="1316" width="72.5" height="30" as="geometry"/>
                </mxCell>
                <mxCell id="228" value="&lt;font color=&quot;#004a52&quot; size=&quot;1&quot;&gt;&lt;b&gt;STEP 3: &lt;/b&gt;The master node partitions are sent to the slave nodes. Each TaskModule of node process the tasks of inbox&lt;/font&gt;" style="text;html=1;strokeColor=none;fillColor=#4DB2BD;align=center;verticalAlign=middle;whiteSpace=wrap;rounded=0;fontSize=10;fontColor=#FFFFFF;gradientColor=none;" parent="1" vertex="1">
                    <mxGeometry x="23" y="1050" width="200" height="109" as="geometry"/>
                </mxCell>
                <mxCell id="229" value="" style="rounded=1;whiteSpace=wrap;html=1;fontColor=#004A52;strokeColor=#FFFFFF;fillColor=#00636E;" parent="1" vertex="1">
                    <mxGeometry x="261" y="1178.5" width="149" height="220.5" as="geometry"/>
                </mxCell>
                <mxCell id="230" value="Service Server" style="text;html=1;strokeColor=none;fillColor=none;align=center;verticalAlign=middle;whiteSpace=wrap;rounded=0;fontColor=#FFFFFF;" parent="1" vertex="1">
                    <mxGeometry x="294" y="1182.5" width="93" height="30" as="geometry"/>
                </mxCell>
                <mxCell id="231" value="" style="rounded=1;whiteSpace=wrap;html=1;fontColor=#004A52;strokeColor=#FFFFFF;fillColor=#00636E;" parent="1" vertex="1">
                    <mxGeometry x="270" y="1214" width="129" height="110" as="geometry"/>
                </mxCell>
                <mxCell id="233" value="Request inbox" style="text;html=1;strokeColor=none;fillColor=none;align=center;verticalAlign=middle;whiteSpace=wrap;rounded=0;fontColor=#FFFFFF;" parent="1" vertex="1">
                    <mxGeometry x="288" y="1216" width="93" height="30" as="geometry"/>
                </mxCell>
                <mxCell id="234" value="" style="rounded=1;whiteSpace=wrap;html=1;fontColor=#004A52;strokeColor=#FFFFFF;fillColor=#00636E;" parent="1" vertex="1">
                    <mxGeometry x="272" y="1330" width="129" height="53" as="geometry"/>
                </mxCell>
                <mxCell id="235" style="edgeStyle=none;html=1;exitX=1;exitY=0.5;exitDx=0;exitDy=0;entryX=0;entryY=0.5;entryDx=0;entryDy=0;dashed=1;fontSize=10;fontColor=#004A52;endArrow=none;endFill=0;strokeWidth=2;" parent="1" source="236" target="229" edge="1">
                    <mxGeometry relative="1" as="geometry"/>
                </mxCell>
                <mxCell id="236" value="" style="rounded=1;whiteSpace=wrap;html=1;fontColor=#004A52;strokeColor=#FFFFFF;fillColor=#00636E;" parent="1" vertex="1">
                    <mxGeometry x="34" y="1235.75" width="120" height="107" as="geometry"/>
                </mxCell>
                <mxCell id="237" value="Client #0" style="text;html=1;strokeColor=none;fillColor=none;align=center;verticalAlign=middle;whiteSpace=wrap;rounded=0;fontColor=#FFFFFF;" parent="1" vertex="1">
                    <mxGeometry x="63" y="1236.75" width="60" height="30" as="geometry"/>
                </mxCell>
                <mxCell id="240" value="" style="rounded=1;whiteSpace=wrap;html=1;fontColor=#004A52;strokeColor=#FFFFFF;fillColor=#00636E;arcSize=19;" parent="1" vertex="1">
                    <mxGeometry x="426.5" y="1330" width="129" height="55" as="geometry"/>
                </mxCell>
                <mxCell id="241" value="Task outbox" style="text;html=1;strokeColor=none;fillColor=none;align=center;verticalAlign=middle;whiteSpace=wrap;rounded=0;fontColor=#FFFFFF;" parent="1" vertex="1">
                    <mxGeometry x="445" y="1329" width="93" height="30" as="geometry"/>
                </mxCell>
                <mxCell id="249" value="Task#A1" style="rounded=1;whiteSpace=wrap;html=1;fontColor=#ffffff;fillColor=#009999;strokeColor=#006EAF;arcSize=22;" parent="1" vertex="1">
                    <mxGeometry x="494" y="808.75" width="53" height="26" as="geometry"/>
                </mxCell>
                <mxCell id="250" value="Task#A2" style="rounded=1;whiteSpace=wrap;html=1;fontColor=#ffffff;fillColor=#009999;strokeColor=#006EAF;arcSize=22;" parent="1" vertex="1">
                    <mxGeometry x="437.5" y="838" width="49" height="26" as="geometry"/>
                </mxCell>
                <mxCell id="251" value="Task#B1" style="rounded=1;whiteSpace=wrap;html=1;fontColor=#ffffff;fillColor=#00CCCC;strokeColor=#FFFFFF;arcSize=22;" parent="1" vertex="1">
                    <mxGeometry x="438" y="868" width="48.75" height="25" as="geometry"/>
                </mxCell>
                <mxCell id="268" style="edgeStyle=none;html=1;exitX=1;exitY=0.25;exitDx=0;exitDy=0;entryX=0;entryY=0.5;entryDx=0;entryDy=0;fontSize=10;fontColor=#004A52;endArrow=classic;endFill=1;strokeWidth=2;" parent="1" source="252" target="220" edge="1">
                    <mxGeometry relative="1" as="geometry"/>
                </mxCell>
                <mxCell id="269" style="edgeStyle=none;html=1;exitX=1;exitY=0.75;exitDx=0;exitDy=0;entryX=0;entryY=0.5;entryDx=0;entryDy=0;fontSize=10;fontColor=#004A52;endArrow=classic;endFill=1;strokeWidth=2;" parent="1" source="252" target="226" edge="1">
                    <mxGeometry relative="1" as="geometry"/>
                </mxCell>
                <mxCell id="252" value="" style="rounded=1;whiteSpace=wrap;html=1;fontColor=#004A52;strokeColor=#FFFFFF;fillColor=#00636E;" parent="1" vertex="1">
                    <mxGeometry x="426.5" y="1213" width="129" height="111" as="geometry"/>
                </mxCell>
                <mxCell id="253" value="Task inbox" style="text;html=1;strokeColor=none;fillColor=none;align=center;verticalAlign=middle;whiteSpace=wrap;rounded=0;fontColor=#FFFFFF;" parent="1" vertex="1">
                    <mxGeometry x="444.5" y="1210.5" width="93" height="30" as="geometry"/>
                </mxCell>
                <mxCell id="254" value="Task#B0" style="rounded=1;whiteSpace=wrap;html=1;fontColor=#ffffff;fillColor=#00CCCC;strokeColor=#FFFFFF;arcSize=22;dashed=1;strokeWidth=2;" parent="1" vertex="1">
                    <mxGeometry x="495.25" y="1265" width="48.75" height="25" as="geometry"/>
                </mxCell>
                <mxCell id="255" value="Task#A0" style="rounded=1;whiteSpace=wrap;html=1;fontColor=#ffffff;fillColor=#009999;strokeColor=#006EAF;arcSize=22;dashed=1;strokeWidth=2;" parent="1" vertex="1">
                    <mxGeometry x="437" y="1235" width="50.5" height="26" as="geometry"/>
                </mxCell>
                <mxCell id="256" value="Task#A1" style="rounded=1;whiteSpace=wrap;html=1;fontColor=#ffffff;fillColor=#009999;strokeColor=#006EAF;arcSize=22;dashed=1;strokeWidth=2;" parent="1" vertex="1">
                    <mxGeometry x="493.5" y="1234.75" width="53" height="26" as="geometry"/>
                </mxCell>
                <mxCell id="257" value="Task#A2" style="rounded=1;whiteSpace=wrap;html=1;fontColor=#ffffff;fillColor=#009999;strokeColor=#006EAF;arcSize=22;strokeWidth=2;dashed=1;" parent="1" vertex="1">
                    <mxGeometry x="437" y="1264" width="49" height="26" as="geometry"/>
                </mxCell>
                <mxCell id="271" value="" style="rounded=1;whiteSpace=wrap;html=1;shadow=0;glass=0;sketch=0;fontSize=10;fontColor=#004A52;strokeColor=#FFFFFF;strokeWidth=1;fillColor=none;gradientColor=none;gradientDirection=east;" parent="1" vertex="1">
                    <mxGeometry x="631.63" y="1085" width="77.37" height="55" as="geometry"/>
                </mxCell>
                <mxCell id="258" value="Task#B1" style="rounded=1;whiteSpace=wrap;html=1;fontColor=#ffffff;fillColor=#00CCCC;strokeColor=#FFFFFF;arcSize=22;dashed=1;strokeWidth=2;" parent="1" vertex="1">
                    <mxGeometry x="437.5" y="1294" width="48.75" height="25" as="geometry"/>
                </mxCell>
                <mxCell id="260" value="Task#A1" style="rounded=1;whiteSpace=wrap;html=1;fontColor=#ffffff;fillColor=#009999;strokeColor=#006EAF;arcSize=22;strokeWidth=2;" parent="1" vertex="1">
                    <mxGeometry x="635.62" y="1108" width="53" height="26" as="geometry"/>
                </mxCell>
                <mxCell id="266" style="edgeStyle=none;html=1;exitX=1;exitY=0.5;exitDx=0;exitDy=0;entryX=0;entryY=0.5;entryDx=0;entryDy=0;fontSize=10;fontColor=#004A52;endArrow=classic;endFill=1;strokeWidth=2;" parent="1" source="252" target="222" edge="1">
                    <mxGeometry relative="1" as="geometry"/>
                </mxCell>
                <mxCell id="273" value="&lt;span style=&quot;font-size: 10px&quot;&gt;Task inbox&lt;/span&gt;" style="text;html=1;strokeColor=none;fillColor=none;align=center;verticalAlign=middle;whiteSpace=wrap;rounded=0;fontColor=#FFFFFF;" parent="1" vertex="1">
                    <mxGeometry x="634.07" y="1080" width="72.5" height="30" as="geometry"/>
                </mxCell>
                <mxCell id="274" value="" style="rounded=1;whiteSpace=wrap;html=1;shadow=0;glass=0;sketch=0;fontSize=10;fontColor=#004A52;strokeColor=#FFFFFF;strokeWidth=1;fillColor=none;gradientColor=none;gradientDirection=east;" parent="1" vertex="1">
                    <mxGeometry x="717" y="1085" width="77.37" height="55" as="geometry"/>
                </mxCell>
                <mxCell id="275" value="&lt;span style=&quot;font-size: 10px&quot;&gt;Task outbox&lt;/span&gt;" style="text;html=1;strokeColor=none;fillColor=none;align=center;verticalAlign=middle;whiteSpace=wrap;rounded=0;fontColor=#FFFFFF;" parent="1" vertex="1">
                    <mxGeometry x="719.44" y="1080" width="72.5" height="30" as="geometry"/>
                </mxCell>
                <mxCell id="276" value="" style="rounded=1;whiteSpace=wrap;html=1;shadow=0;glass=0;sketch=0;fontSize=10;fontColor=#004A52;strokeColor=#FFFFFF;strokeWidth=1;fillColor=none;gradientColor=none;gradientDirection=east;" parent="1" vertex="1">
                    <mxGeometry x="633.26" y="1191" width="113.74" height="55" as="geometry"/>
                </mxCell>
                <mxCell id="277" value="&lt;span style=&quot;font-size: 10px&quot;&gt;Task inbox&lt;/span&gt;" style="text;html=1;strokeColor=none;fillColor=none;align=center;verticalAlign=middle;whiteSpace=wrap;rounded=0;fontColor=#FFFFFF;" parent="1" vertex="1">
                    <mxGeometry x="660" y="1184" width="72.5" height="30" as="geometry"/>
                </mxCell>
                <mxCell id="278" value="" style="rounded=1;whiteSpace=wrap;html=1;shadow=0;glass=0;sketch=0;fontSize=10;fontColor=#004A52;strokeColor=#FFFFFF;strokeWidth=1;fillColor=none;gradientColor=none;gradientDirection=east;" parent="1" vertex="1">
                    <mxGeometry x="750" y="1192" width="44.37" height="55" as="geometry"/>
                </mxCell>
                <mxCell id="262" value="Task#B0" style="rounded=1;whiteSpace=wrap;html=1;fontColor=#ffffff;fillColor=#00CCCC;strokeColor=#FFFFFF;arcSize=22;strokeWidth=2;" parent="1" vertex="1">
                    <mxGeometry x="637.74" y="1210.5" width="48.75" height="25" as="geometry"/>
                </mxCell>
                <mxCell id="263" value="Task#B1" style="rounded=1;whiteSpace=wrap;html=1;fontColor=#ffffff;fillColor=#00CCCC;strokeColor=#FFFFFF;arcSize=22;strokeWidth=2;" parent="1" vertex="1">
                    <mxGeometry x="692.25" y="1211.75" width="48.75" height="25" as="geometry"/>
                </mxCell>
                <mxCell id="279" value="&lt;span style=&quot;font-size: 10px&quot;&gt;Task outbox&lt;/span&gt;" style="text;html=1;strokeColor=none;fillColor=none;align=center;verticalAlign=middle;whiteSpace=wrap;rounded=0;fontColor=#FFFFFF;rotation=0;" parent="1" vertex="1">
                    <mxGeometry x="744" y="1192" width="55.75" height="17" as="geometry"/>
                </mxCell>
                <mxCell id="280" value="" style="rounded=1;whiteSpace=wrap;html=1;shadow=0;glass=0;sketch=0;fontSize=10;fontColor=#004A52;strokeColor=#FFFFFF;strokeWidth=1;fillColor=none;gradientColor=none;gradientDirection=east;" parent="1" vertex="1">
                    <mxGeometry x="626.63" y="1342" width="114.37" height="55" as="geometry"/>
                </mxCell>
                <mxCell id="259" value="Task#A0" style="rounded=1;whiteSpace=wrap;html=1;fontColor=#ffffff;fillColor=#009999;strokeColor=#006EAF;arcSize=22;strokeWidth=2;" parent="1" vertex="1">
                    <mxGeometry x="630" y="1360" width="50.5" height="26" as="geometry"/>
                </mxCell>
                <mxCell id="282" value="" style="rounded=1;whiteSpace=wrap;html=1;shadow=0;glass=0;sketch=0;fontSize=10;fontColor=#004A52;strokeColor=#FFFFFF;strokeWidth=1;fillColor=none;gradientColor=none;gradientDirection=east;" parent="1" vertex="1">
                    <mxGeometry x="744" y="1342" width="45.37" height="55" as="geometry"/>
                </mxCell>
                <mxCell id="283" value="&lt;span style=&quot;font-size: 10px&quot;&gt;Task outbox&lt;/span&gt;" style="text;html=1;strokeColor=none;fillColor=none;align=center;verticalAlign=middle;whiteSpace=wrap;rounded=0;fontColor=#FFFFFF;" parent="1" vertex="1">
                    <mxGeometry x="720" y="1337" width="72.5" height="30" as="geometry"/>
                </mxCell>
                <mxCell id="281" value="&lt;span style=&quot;font-size: 10px&quot;&gt;Task inbox&lt;/span&gt;" style="text;html=1;strokeColor=none;fillColor=none;align=center;verticalAlign=middle;whiteSpace=wrap;rounded=0;fontColor=#FFFFFF;" parent="1" vertex="1">
                    <mxGeometry x="629" y="1337" width="72.5" height="30" as="geometry"/>
                </mxCell>
                <mxCell id="261" value="Task#A2" style="rounded=1;whiteSpace=wrap;html=1;fontColor=#ffffff;fillColor=#009999;strokeColor=#006EAF;arcSize=22;strokeWidth=2;" parent="1" vertex="1">
                    <mxGeometry x="686.5" y="1361" width="49" height="26" as="geometry"/>
                </mxCell>
                <mxCell id="284" value="" style="rounded=1;whiteSpace=wrap;html=1;dashed=1;fontSize=10;fontColor=#004A52;strokeColor=#4DB2BD;fillColor=none;gradientColor=none;arcSize=8;perimeterSpacing=0;strokeWidth=2;" parent="1" vertex="1">
                    <mxGeometry x="2" y="1463" width="810" height="441" as="geometry"/>
                </mxCell>
                <mxCell id="285" value="&lt;font style=&quot;font-size: 19px&quot;&gt;Server&lt;/font&gt;" style="text;html=1;strokeColor=none;fillColor=none;align=center;verticalAlign=middle;whiteSpace=wrap;rounded=0;fontColor=#FFFFFF;" parent="1" vertex="1">
                    <mxGeometry x="346.5" y="1493" width="119" height="30" as="geometry"/>
                </mxCell>
                <mxCell id="286" style="edgeStyle=none;html=1;exitX=0.75;exitY=0;exitDx=0;exitDy=0;entryX=0.301;entryY=1.008;entryDx=0;entryDy=0;entryPerimeter=0;fontSize=19;fontColor=#FFFFFF;endArrow=blockThin;endFill=1;strokeWidth=2;" parent="1" source="287" target="291" edge="1">
                    <mxGeometry relative="1" as="geometry"/>
                </mxCell>
                <mxCell id="287" value="" style="rounded=1;whiteSpace=wrap;html=1;fontColor=#004A52;strokeColor=#FFFFFF;fillColor=#00636E;" parent="1" vertex="1">
                    <mxGeometry x="254" y="1633" width="120" height="107" as="geometry"/>
                </mxCell>
                <mxCell id="288" value="Service Server" style="text;html=1;strokeColor=none;fillColor=none;align=center;verticalAlign=middle;whiteSpace=wrap;rounded=0;fontColor=#FFFFFF;" parent="1" vertex="1">
                    <mxGeometry x="268" y="1637" width="93" height="30" as="geometry"/>
                </mxCell>
                <mxCell id="289" style="edgeStyle=none;html=1;exitX=0.105;exitY=0.994;exitDx=0;exitDy=0;entryX=0.25;entryY=0;entryDx=0;entryDy=0;fontSize=19;fontColor=#FFFFFF;endArrow=none;endFill=0;strokeWidth=2;exitPerimeter=0;" parent="1" source="291" target="287" edge="1">
                    <mxGeometry relative="1" as="geometry"/>
                </mxCell>
                <mxCell id="290" style="edgeStyle=none;html=1;exitX=0.701;exitY=1.008;exitDx=0;exitDy=0;entryX=0.25;entryY=0;entryDx=0;entryDy=0;fontSize=19;fontColor=#FFFFFF;endArrow=blockThin;endFill=1;strokeWidth=2;exitPerimeter=0;" parent="1" source="291" target="294" edge="1">
                    <mxGeometry relative="1" as="geometry"/>
                </mxCell>
                <mxCell id="291" value="" style="rounded=1;whiteSpace=wrap;html=1;fontSize=19;fontColor=#FFFFFF;strokeColor=#FFFFFF;fillColor=#00636E;" parent="1" vertex="1">
                    <mxGeometry x="253" y="1534" width="305" height="60" as="geometry"/>
                </mxCell>
                <mxCell id="292" value="Server Controller" style="text;html=1;strokeColor=none;fillColor=none;align=center;verticalAlign=middle;whiteSpace=wrap;rounded=0;fontColor=#FFFFFF;" parent="1" vertex="1">
                    <mxGeometry x="330" y="1534" width="150" height="30" as="geometry"/>
                </mxCell>
                <mxCell id="293" style="edgeStyle=none;html=1;exitX=0.75;exitY=0;exitDx=0;exitDy=0;entryX=0.896;entryY=0.988;entryDx=0;entryDy=0;entryPerimeter=0;fontSize=19;fontColor=#FFFFFF;endArrow=blockThin;endFill=1;strokeWidth=2;" parent="1" source="294" target="291" edge="1">
                    <mxGeometry relative="1" as="geometry"/>
                </mxCell>
                <mxCell id="294" value="" style="rounded=1;whiteSpace=wrap;html=1;fontColor=#004A52;strokeColor=#FFFFFF;fillColor=#00636E;" parent="1" vertex="1">
                    <mxGeometry x="436" y="1630.5" width="120" height="107" as="geometry"/>
                </mxCell>
                <mxCell id="295" value="Master node" style="text;html=1;strokeColor=none;fillColor=none;align=center;verticalAlign=middle;whiteSpace=wrap;rounded=0;fontColor=#FFFFFF;" parent="1" vertex="1">
                    <mxGeometry x="459.75" y="1637" width="72.5" height="30" as="geometry"/>
                </mxCell>
                <mxCell id="296" value="" style="rounded=1;whiteSpace=wrap;html=1;fontColor=#004A52;strokeColor=#FFFFFF;fillColor=#00636E;" parent="1" vertex="1">
                    <mxGeometry x="609" y="1474" width="198" height="249" as="geometry"/>
                </mxCell>
                <mxCell id="297" value="Slave node #0" style="text;html=1;strokeColor=none;fillColor=none;align=center;verticalAlign=middle;whiteSpace=wrap;rounded=0;fontColor=#FFFFFF;" parent="1" vertex="1">
                    <mxGeometry x="664.38" y="1476" width="87.25" height="30" as="geometry"/>
                </mxCell>
                <mxCell id="298" value="" style="rounded=1;whiteSpace=wrap;html=1;fontSize=19;fontColor=#FFFFFF;strokeColor=#FFFFFF;fillColor=#009999;" parent="1" vertex="1">
                    <mxGeometry x="619" y="1509" width="176" height="91" as="geometry"/>
                </mxCell>
                <mxCell id="299" value="&lt;font style=&quot;font-size: 10px&quot;&gt;ImageTaskModule&lt;/font&gt;" style="text;html=1;strokeColor=none;fillColor=none;align=center;verticalAlign=middle;whiteSpace=wrap;rounded=0;fontColor=#FFFFFF;" parent="1" vertex="1">
                    <mxGeometry x="668.75" y="1508" width="72.5" height="30" as="geometry"/>
                </mxCell>
                <mxCell id="300" value="" style="rounded=1;whiteSpace=wrap;html=1;fontSize=19;fontColor=#FFFFFF;strokeColor=#FFFFFF;fillColor=#00CCCC;" parent="1" vertex="1">
                    <mxGeometry x="620" y="1609" width="176" height="98" as="geometry"/>
                </mxCell>
                <mxCell id="301" value="&lt;font style=&quot;font-size: 10px&quot;&gt;Yolov5TaskModule&lt;/font&gt;" style="text;html=1;strokeColor=none;fillColor=none;align=center;verticalAlign=middle;whiteSpace=wrap;rounded=0;fontColor=#FFFFFF;" parent="1" vertex="1">
                    <mxGeometry x="668.75" y="1610" width="72.5" height="30" as="geometry"/>
                </mxCell>
                <mxCell id="302" value="" style="rounded=1;whiteSpace=wrap;html=1;fontColor=#004A52;strokeColor=#FFFFFF;fillColor=#00636E;" parent="1" vertex="1">
                    <mxGeometry x="606" y="1734" width="198" height="135" as="geometry"/>
                </mxCell>
                <mxCell id="303" value="Slave node #0" style="text;html=1;strokeColor=none;fillColor=none;align=center;verticalAlign=middle;whiteSpace=wrap;rounded=0;fontColor=#FFFFFF;" parent="1" vertex="1">
                    <mxGeometry x="661.38" y="1736" width="87.25" height="30" as="geometry"/>
                </mxCell>
                <mxCell id="304" value="" style="rounded=1;whiteSpace=wrap;html=1;fontSize=19;fontColor=#FFFFFF;strokeColor=#FFFFFF;fillColor=#009999;" parent="1" vertex="1">
                    <mxGeometry x="616" y="1769" width="176" height="91" as="geometry"/>
                </mxCell>
                <mxCell id="305" value="&lt;font style=&quot;font-size: 10px&quot;&gt;ImageTaskModule&lt;/font&gt;" style="text;html=1;strokeColor=none;fillColor=none;align=center;verticalAlign=middle;whiteSpace=wrap;rounded=0;fontColor=#FFFFFF;" parent="1" vertex="1">
                    <mxGeometry x="665.75" y="1768" width="72.5" height="30" as="geometry"/>
                </mxCell>
                <mxCell id="306" value="" style="rounded=1;whiteSpace=wrap;html=1;fontColor=#004A52;strokeColor=#FFFFFF;fillColor=#00636E;arcSize=11;" parent="1" vertex="1">
                    <mxGeometry x="240" y="1490" width="334" height="377" as="geometry"/>
                </mxCell>
                <mxCell id="307" value="&lt;font style=&quot;font-size: 19px&quot;&gt;Server&lt;/font&gt;" style="text;html=1;strokeColor=none;fillColor=none;align=center;verticalAlign=middle;whiteSpace=wrap;rounded=0;fontColor=#FFFFFF;" parent="1" vertex="1">
                    <mxGeometry x="347.5" y="1494" width="119" height="30" as="geometry"/>
                </mxCell>
                <mxCell id="308" value="" style="rounded=1;whiteSpace=wrap;html=1;fontSize=19;fontColor=#FFFFFF;strokeColor=#FFFFFF;fillColor=#00636E;" parent="1" vertex="1">
                    <mxGeometry x="254" y="1535" width="305" height="60" as="geometry"/>
                </mxCell>
                <mxCell id="309" value="Server Controller" style="text;html=1;strokeColor=none;fillColor=none;align=center;verticalAlign=middle;whiteSpace=wrap;rounded=0;fontColor=#FFFFFF;" parent="1" vertex="1">
                    <mxGeometry x="331" y="1535" width="150" height="30" as="geometry"/>
                </mxCell>
                <mxCell id="310" value="" style="rounded=1;whiteSpace=wrap;html=1;fontColor=#004A52;strokeColor=#FFFFFF;fillColor=#00636E;" parent="1" vertex="1">
                    <mxGeometry x="417" y="1631.5" width="140" height="221.5" as="geometry"/>
                </mxCell>
                <mxCell id="311" value="Master node" style="text;html=1;strokeColor=none;fillColor=none;align=center;verticalAlign=middle;whiteSpace=wrap;rounded=0;fontColor=#FFFFFF;" parent="1" vertex="1">
                    <mxGeometry x="451.25" y="1637" width="72.5" height="30" as="geometry"/>
                </mxCell>
                <mxCell id="312" value="" style="rounded=1;whiteSpace=wrap;html=1;fontColor=#004A52;strokeColor=#FFFFFF;fillColor=#00636E;" parent="1" vertex="1">
                    <mxGeometry x="610" y="1475" width="198" height="249" as="geometry"/>
                </mxCell>
                <mxCell id="313" value="Slave node #0" style="text;html=1;strokeColor=none;fillColor=none;align=center;verticalAlign=middle;whiteSpace=wrap;rounded=0;fontColor=#FFFFFF;" parent="1" vertex="1">
                    <mxGeometry x="665.38" y="1477" width="87.25" height="30" as="geometry"/>
                </mxCell>
                <mxCell id="314" value="" style="rounded=1;whiteSpace=wrap;html=1;fontSize=19;fontColor=#FFFFFF;strokeColor=#FFFFFF;fillColor=#009999;" parent="1" vertex="1">
                    <mxGeometry x="620" y="1510" width="176" height="91" as="geometry"/>
                </mxCell>
                <mxCell id="315" value="&lt;font style=&quot;font-size: 10px&quot;&gt;ImageTaskModule&lt;/font&gt;" style="text;html=1;strokeColor=none;fillColor=none;align=center;verticalAlign=middle;whiteSpace=wrap;rounded=0;fontColor=#FFFFFF;" parent="1" vertex="1">
                    <mxGeometry x="669.75" y="1509" width="72.5" height="30" as="geometry"/>
                </mxCell>
                <mxCell id="316" value="" style="rounded=1;whiteSpace=wrap;html=1;fontSize=19;fontColor=#FFFFFF;strokeColor=#FFFFFF;fillColor=#00CCCC;" parent="1" vertex="1">
                    <mxGeometry x="621" y="1610" width="176" height="98" as="geometry"/>
                </mxCell>
                <mxCell id="317" value="&lt;font style=&quot;font-size: 10px&quot;&gt;Yolov5TaskModule&lt;/font&gt;" style="text;html=1;strokeColor=none;fillColor=none;align=center;verticalAlign=middle;whiteSpace=wrap;rounded=0;fontColor=#FFFFFF;" parent="1" vertex="1">
                    <mxGeometry x="669.75" y="1611" width="72.5" height="30" as="geometry"/>
                </mxCell>
                <mxCell id="318" value="" style="rounded=1;whiteSpace=wrap;html=1;fontColor=#004A52;strokeColor=#FFFFFF;fillColor=#00636E;" parent="1" vertex="1">
                    <mxGeometry x="607" y="1735" width="198" height="135" as="geometry"/>
                </mxCell>
                <mxCell id="319" value="Slave node #1" style="text;html=1;strokeColor=none;fillColor=none;align=center;verticalAlign=middle;whiteSpace=wrap;rounded=0;fontColor=#FFFFFF;" parent="1" vertex="1">
                    <mxGeometry x="662.38" y="1737" width="87.25" height="30" as="geometry"/>
                </mxCell>
                <mxCell id="320" value="" style="rounded=1;whiteSpace=wrap;html=1;fontSize=19;fontColor=#FFFFFF;strokeColor=#FFFFFF;fillColor=#009999;" parent="1" vertex="1">
                    <mxGeometry x="617" y="1770" width="176" height="91" as="geometry"/>
                </mxCell>
                <mxCell id="321" value="&lt;font style=&quot;font-size: 10px&quot;&gt;ImageTaskModule&lt;/font&gt;" style="text;html=1;strokeColor=none;fillColor=none;align=center;verticalAlign=middle;whiteSpace=wrap;rounded=0;fontColor=#FFFFFF;" parent="1" vertex="1">
                    <mxGeometry x="666.75" y="1769" width="72.5" height="30" as="geometry"/>
                </mxCell>
                <mxCell id="322" value="&lt;font color=&quot;#004a52&quot; size=&quot;1&quot;&gt;&lt;b&gt;STEP 4: O&lt;/b&gt;nce a task is finished by a slave, it is sent back to the Master node's task outbox.&amp;nbsp;&lt;/font&gt;" style="text;html=1;strokeColor=none;fillColor=#4DB2BD;align=center;verticalAlign=middle;whiteSpace=wrap;rounded=0;fontSize=10;fontColor=#FFFFFF;gradientColor=none;" parent="1" vertex="1">
                    <mxGeometry x="19" y="1503" width="200" height="109" as="geometry"/>
                </mxCell>
                <mxCell id="323" value="" style="rounded=1;whiteSpace=wrap;html=1;fontColor=#004A52;strokeColor=#FFFFFF;fillColor=#00636E;" parent="1" vertex="1">
                    <mxGeometry x="257" y="1631.5" width="149" height="220.5" as="geometry"/>
                </mxCell>
                <mxCell id="324" value="Service Server" style="text;html=1;strokeColor=none;fillColor=none;align=center;verticalAlign=middle;whiteSpace=wrap;rounded=0;fontColor=#FFFFFF;" parent="1" vertex="1">
                    <mxGeometry x="290" y="1635.5" width="93" height="30" as="geometry"/>
                </mxCell>
                <mxCell id="325" value="" style="rounded=1;whiteSpace=wrap;html=1;fontColor=#004A52;strokeColor=#FFFFFF;fillColor=#00636E;" parent="1" vertex="1">
                    <mxGeometry x="266" y="1667" width="129" height="110" as="geometry"/>
                </mxCell>
                <mxCell id="326" value="Request inbox" style="text;html=1;strokeColor=none;fillColor=none;align=center;verticalAlign=middle;whiteSpace=wrap;rounded=0;fontColor=#FFFFFF;" parent="1" vertex="1">
                    <mxGeometry x="284" y="1669" width="93" height="30" as="geometry"/>
                </mxCell>
                <mxCell id="327" value="" style="rounded=1;whiteSpace=wrap;html=1;fontColor=#004A52;strokeColor=#FFFFFF;fillColor=#00636E;" parent="1" vertex="1">
                    <mxGeometry x="268" y="1783" width="129" height="53" as="geometry"/>
                </mxCell>
                <mxCell id="328" style="edgeStyle=none;html=1;exitX=1;exitY=0.5;exitDx=0;exitDy=0;entryX=0;entryY=0.5;entryDx=0;entryDy=0;dashed=1;fontSize=10;fontColor=#004A52;endArrow=none;endFill=0;strokeWidth=2;" parent="1" source="329" target="323" edge="1">
                    <mxGeometry relative="1" as="geometry"/>
                </mxCell>
                <mxCell id="329" value="" style="rounded=1;whiteSpace=wrap;html=1;fontColor=#004A52;strokeColor=#FFFFFF;fillColor=#00636E;" parent="1" vertex="1">
                    <mxGeometry x="30" y="1688.75" width="120" height="107" as="geometry"/>
                </mxCell>
                <mxCell id="330" value="Client #0" style="text;html=1;strokeColor=none;fillColor=none;align=center;verticalAlign=middle;whiteSpace=wrap;rounded=0;fontColor=#FFFFFF;" parent="1" vertex="1">
                    <mxGeometry x="59" y="1689.75" width="60" height="30" as="geometry"/>
                </mxCell>
                <mxCell id="332" value="" style="rounded=1;whiteSpace=wrap;html=1;fontColor=#004A52;strokeColor=#FFFFFF;fillColor=#00636E;arcSize=12;" parent="1" vertex="1">
                    <mxGeometry x="422.5" y="1718" width="129" height="120" as="geometry"/>
                </mxCell>
                <mxCell id="333" value="Task outbox" style="text;html=1;strokeColor=none;fillColor=none;align=center;verticalAlign=middle;whiteSpace=wrap;rounded=0;fontColor=#FFFFFF;" parent="1" vertex="1">
                    <mxGeometry x="434.75" y="1713.75" width="93" height="30" as="geometry"/>
                </mxCell>
                <mxCell id="336" value="" style="rounded=1;whiteSpace=wrap;html=1;fontColor=#004A52;strokeColor=#FFFFFF;fillColor=#00636E;arcSize=30;" parent="1" vertex="1">
                    <mxGeometry x="422.5" y="1666" width="129" height="47" as="geometry"/>
                </mxCell>
                <mxCell id="337" value="Task inbox" style="text;html=1;strokeColor=none;fillColor=none;align=center;verticalAlign=middle;whiteSpace=wrap;rounded=0;fontColor=#FFFFFF;" parent="1" vertex="1">
                    <mxGeometry x="440.5" y="1663.5" width="93" height="30" as="geometry"/>
                </mxCell>
                <mxCell id="338" value="Task#B0" style="rounded=1;whiteSpace=wrap;html=1;fontColor=#ffffff;fillColor=#00CCCC;strokeColor=#FFFFFF;arcSize=22;strokeWidth=1;" parent="1" vertex="1">
                    <mxGeometry x="491.5" y="1776.25" width="48.75" height="25" as="geometry"/>
                </mxCell>
                <mxCell id="339" value="Task#A0" style="rounded=1;whiteSpace=wrap;html=1;fontColor=#ffffff;fillColor=#009999;strokeColor=#006EAF;arcSize=22;strokeWidth=1;" parent="1" vertex="1">
                    <mxGeometry x="433.25" y="1746.25" width="50.5" height="26" as="geometry"/>
                </mxCell>
                <mxCell id="340" value="Task#A1" style="rounded=1;whiteSpace=wrap;html=1;fontColor=#ffffff;fillColor=#009999;strokeColor=#006EAF;arcSize=22;strokeWidth=1;" parent="1" vertex="1">
                    <mxGeometry x="489.75" y="1746" width="53" height="26" as="geometry"/>
                </mxCell>
                <mxCell id="341" value="Task#A2" style="rounded=1;whiteSpace=wrap;html=1;fontColor=#ffffff;fillColor=#009999;strokeColor=#006EAF;arcSize=22;strokeWidth=1;" parent="1" vertex="1">
                    <mxGeometry x="433.25" y="1775.25" width="49" height="26" as="geometry"/>
                </mxCell>
                <mxCell id="342" value="" style="rounded=1;whiteSpace=wrap;html=1;shadow=0;glass=0;sketch=0;fontSize=10;fontColor=#004A52;strokeColor=#FFFFFF;strokeWidth=1;fillColor=none;gradientColor=none;gradientDirection=east;" parent="1" vertex="1">
                    <mxGeometry x="627.63" y="1538" width="77.37" height="55" as="geometry"/>
                </mxCell>
                <mxCell id="343" value="Task#B1" style="rounded=1;whiteSpace=wrap;html=1;fontColor=#ffffff;fillColor=#00CCCC;strokeColor=#FFFFFF;arcSize=22;strokeWidth=1;" parent="1" vertex="1">
                    <mxGeometry x="433.75" y="1805.25" width="48.75" height="25" as="geometry"/>
                </mxCell>
                <mxCell id="344" value="Task#A1" style="rounded=1;whiteSpace=wrap;html=1;fontColor=#ffffff;fillColor=#009999;strokeColor=#006EAF;arcSize=22;strokeWidth=2;dashed=1;" parent="1" vertex="1">
                    <mxGeometry x="722" y="1561" width="53" height="26" as="geometry"/>
                </mxCell>
                <mxCell id="346" value="&lt;span style=&quot;font-size: 10px&quot;&gt;Task inbox&lt;/span&gt;" style="text;html=1;strokeColor=none;fillColor=none;align=center;verticalAlign=middle;whiteSpace=wrap;rounded=0;fontColor=#FFFFFF;" parent="1" vertex="1">
                    <mxGeometry x="630.07" y="1533" width="72.5" height="30" as="geometry"/>
                </mxCell>
                <mxCell id="361" style="edgeStyle=none;html=1;exitX=1;exitY=0.5;exitDx=0;exitDy=0;entryX=1;entryY=0.5;entryDx=0;entryDy=0;fontSize=7;fontColor=#004A52;endArrow=classic;endFill=1;strokeWidth=2;" parent="1" source="347" target="332" edge="1">
                    <mxGeometry relative="1" as="geometry">
                        <Array as="points">
                            <mxPoint x="803" y="1564"/>
                            <mxPoint x="802" y="1604"/>
                            <mxPoint x="587" y="1606"/>
                            <mxPoint x="587" y="1779"/>
                        </Array>
                    </mxGeometry>
                </mxCell>
                <mxCell id="347" value="" style="rounded=1;whiteSpace=wrap;html=1;shadow=0;glass=0;sketch=0;fontSize=10;fontColor=#004A52;strokeColor=#FFFFFF;strokeWidth=1;fillColor=none;gradientColor=none;gradientDirection=east;" parent="1" vertex="1">
                    <mxGeometry x="713" y="1538" width="77.37" height="55" as="geometry"/>
                </mxCell>
                <mxCell id="348" value="&lt;span style=&quot;font-size: 10px&quot;&gt;Task outbox&lt;/span&gt;" style="text;html=1;strokeColor=none;fillColor=none;align=center;verticalAlign=middle;whiteSpace=wrap;rounded=0;fontColor=#FFFFFF;" parent="1" vertex="1">
                    <mxGeometry x="715.44" y="1533" width="72.5" height="30" as="geometry"/>
                </mxCell>
                <mxCell id="349" value="" style="rounded=1;whiteSpace=wrap;html=1;shadow=0;glass=0;sketch=0;fontSize=10;fontColor=#004A52;strokeColor=#FFFFFF;strokeWidth=1;fillColor=none;gradientColor=none;gradientDirection=east;" parent="1" vertex="1">
                    <mxGeometry x="629.26" y="1644" width="44.74" height="55" as="geometry"/>
                </mxCell>
                <mxCell id="350" value="&lt;span style=&quot;font-size: 10px&quot;&gt;Task inbox&lt;/span&gt;" style="text;html=1;strokeColor=none;fillColor=none;align=center;verticalAlign=middle;whiteSpace=wrap;rounded=0;fontColor=#FFFFFF;" parent="1" vertex="1">
                    <mxGeometry x="614" y="1639" width="72.5" height="30" as="geometry"/>
                </mxCell>
                <mxCell id="362" style="edgeStyle=none;html=1;exitX=1;exitY=0.5;exitDx=0;exitDy=0;entryX=0.988;entryY=0.65;entryDx=0;entryDy=0;fontSize=7;fontColor=#004A52;endArrow=classic;endFill=1;strokeWidth=2;entryPerimeter=0;" parent="1" source="351" target="332" edge="1">
                    <mxGeometry relative="1" as="geometry">
                        <Array as="points">
                            <mxPoint x="802" y="1671"/>
                            <mxPoint x="802" y="1728"/>
                            <mxPoint x="597" y="1729"/>
                            <mxPoint x="594" y="1796"/>
                        </Array>
                    </mxGeometry>
                </mxCell>
                <mxCell id="351" value="" style="rounded=1;whiteSpace=wrap;html=1;shadow=0;glass=0;sketch=0;fontSize=10;fontColor=#004A52;strokeColor=#FFFFFF;strokeWidth=1;fillColor=none;gradientColor=none;gradientDirection=east;" parent="1" vertex="1">
                    <mxGeometry x="677" y="1645" width="113.37" height="55" as="geometry"/>
                </mxCell>
                <mxCell id="352" value="Task#B0" style="rounded=1;whiteSpace=wrap;html=1;fontColor=#ffffff;fillColor=#00CCCC;strokeColor=#FFFFFF;arcSize=22;strokeWidth=2;dashed=1;" parent="1" vertex="1">
                    <mxGeometry x="682" y="1663.5" width="48.75" height="25" as="geometry"/>
                </mxCell>
                <mxCell id="353" value="Task#B1" style="rounded=1;whiteSpace=wrap;html=1;fontColor=#ffffff;fillColor=#00CCCC;strokeColor=#FFFFFF;arcSize=22;strokeWidth=2;dashed=1;" parent="1" vertex="1">
                    <mxGeometry x="736.51" y="1664.75" width="48.75" height="25" as="geometry"/>
                </mxCell>
                <mxCell id="354" value="&lt;span style=&quot;font-size: 10px&quot;&gt;Task outbox&lt;/span&gt;" style="text;html=1;strokeColor=none;fillColor=none;align=center;verticalAlign=middle;whiteSpace=wrap;rounded=0;fontColor=#FFFFFF;rotation=0;" parent="1" vertex="1">
                    <mxGeometry x="705" y="1644" width="55.75" height="17" as="geometry"/>
                </mxCell>
                <mxCell id="355" value="" style="rounded=1;whiteSpace=wrap;html=1;shadow=0;glass=0;sketch=0;fontSize=10;fontColor=#004A52;strokeColor=#FFFFFF;strokeWidth=1;fillColor=none;gradientColor=none;gradientDirection=east;" parent="1" vertex="1">
                    <mxGeometry x="622.63" y="1795" width="47.37" height="55" as="geometry"/>
                </mxCell>
                <mxCell id="363" style="edgeStyle=none;html=1;exitX=1;exitY=0.5;exitDx=0;exitDy=0;entryX=1;entryY=0.75;entryDx=0;entryDy=0;fontSize=7;fontColor=#004A52;endArrow=classic;endFill=1;strokeWidth=2;" parent="1" source="357" target="332" edge="1">
                    <mxGeometry relative="1" as="geometry">
                        <Array as="points">
                            <mxPoint x="800" y="1822"/>
                            <mxPoint x="800" y="1879"/>
                            <mxPoint x="593" y="1877"/>
                            <mxPoint x="594" y="1807"/>
                        </Array>
                    </mxGeometry>
                </mxCell>
                <mxCell id="357" value="" style="rounded=1;whiteSpace=wrap;html=1;shadow=0;glass=0;sketch=0;fontSize=10;fontColor=#004A52;strokeColor=#FFFFFF;strokeWidth=1;fillColor=none;gradientColor=none;gradientDirection=east;" parent="1" vertex="1">
                    <mxGeometry x="673" y="1795" width="112.37" height="55" as="geometry"/>
                </mxCell>
                <mxCell id="356" value="Task#A0" style="rounded=1;whiteSpace=wrap;html=1;fontColor=#ffffff;fillColor=#009999;strokeColor=#006EAF;arcSize=22;strokeWidth=2;dashed=1;" parent="1" vertex="1">
                    <mxGeometry x="676" y="1816" width="50.5" height="26" as="geometry"/>
                </mxCell>
                <mxCell id="358" value="&lt;span style=&quot;font-size: 10px&quot;&gt;Task outbox&lt;/span&gt;" style="text;html=1;strokeColor=none;fillColor=none;align=center;verticalAlign=middle;whiteSpace=wrap;rounded=0;fontColor=#FFFFFF;" parent="1" vertex="1">
                    <mxGeometry x="692.25" y="1790" width="72.5" height="30" as="geometry"/>
                </mxCell>
                <mxCell id="359" value="&lt;span style=&quot;font-size: 10px&quot;&gt;Task inbox&lt;/span&gt;" style="text;html=1;strokeColor=none;fillColor=none;align=center;verticalAlign=middle;whiteSpace=wrap;rounded=0;fontColor=#FFFFFF;" parent="1" vertex="1">
                    <mxGeometry x="608" y="1790" width="72.5" height="30" as="geometry"/>
                </mxCell>
                <mxCell id="360" value="Task#A2" style="rounded=1;whiteSpace=wrap;html=1;fontColor=#ffffff;fillColor=#009999;strokeColor=#006EAF;arcSize=22;strokeWidth=2;dashed=1;" parent="1" vertex="1">
                    <mxGeometry x="732.5" y="1817" width="49" height="26" as="geometry"/>
                </mxCell>
                <mxCell id="364" value="filesDone" style="text;html=1;strokeColor=none;fillColor=none;align=center;verticalAlign=middle;whiteSpace=wrap;rounded=0;fontColor=#FFFFFF;" parent="1" vertex="1">
                    <mxGeometry x="284.5" y="902" width="104" height="30" as="geometry"/>
                </mxCell>
                <mxCell id="365" value="filesDone" style="text;html=1;strokeColor=none;fillColor=none;align=center;verticalAlign=middle;whiteSpace=wrap;rounded=0;fontColor=#FFFFFF;" parent="1" vertex="1">
                    <mxGeometry x="283.5" y="1330" width="104" height="30" as="geometry"/>
                </mxCell>
                <mxCell id="366" value="Response outbox" style="text;html=1;strokeColor=none;fillColor=none;align=center;verticalAlign=middle;whiteSpace=wrap;rounded=0;fontColor=#FFFFFF;" parent="1" vertex="1">
                    <mxGeometry x="278.5" y="1785" width="104" height="30" as="geometry"/>
                </mxCell>
                <mxCell id="367" value="" style="rounded=1;whiteSpace=wrap;html=1;dashed=1;fontSize=10;fontColor=#004A52;strokeColor=#4DB2BD;fillColor=none;gradientColor=none;arcSize=8;perimeterSpacing=0;strokeWidth=2;container=1;" parent="1" vertex="1">
                    <mxGeometry x="5" y="1921" width="810" height="441" as="geometry"/>
                </mxCell>
                <mxCell id="368" value="&lt;font style=&quot;font-size: 19px&quot;&gt;Server&lt;/font&gt;" style="text;html=1;strokeColor=none;fillColor=none;align=center;verticalAlign=middle;whiteSpace=wrap;rounded=0;fontColor=#FFFFFF;" parent="1" vertex="1">
                    <mxGeometry x="349.5" y="1951" width="119" height="30" as="geometry"/>
                </mxCell>
                <mxCell id="369" style="edgeStyle=none;html=1;exitX=0.75;exitY=0;exitDx=0;exitDy=0;entryX=0.301;entryY=1.008;entryDx=0;entryDy=0;entryPerimeter=0;fontSize=19;fontColor=#FFFFFF;endArrow=blockThin;endFill=1;strokeWidth=2;" parent="1" source="370" target="374" edge="1">
                    <mxGeometry relative="1" as="geometry"/>
                </mxCell>
                <mxCell id="370" value="" style="rounded=1;whiteSpace=wrap;html=1;fontColor=#004A52;strokeColor=#FFFFFF;fillColor=#00636E;" parent="1" vertex="1">
                    <mxGeometry x="257" y="2091" width="120" height="107" as="geometry"/>
                </mxCell>
                <mxCell id="371" value="Service Server" style="text;html=1;strokeColor=none;fillColor=none;align=center;verticalAlign=middle;whiteSpace=wrap;rounded=0;fontColor=#FFFFFF;" parent="1" vertex="1">
                    <mxGeometry x="271" y="2095" width="93" height="30" as="geometry"/>
                </mxCell>
                <mxCell id="372" style="edgeStyle=none;html=1;exitX=0.105;exitY=0.994;exitDx=0;exitDy=0;entryX=0.25;entryY=0;entryDx=0;entryDy=0;fontSize=19;fontColor=#FFFFFF;endArrow=none;endFill=0;strokeWidth=2;exitPerimeter=0;" parent="1" source="374" target="370" edge="1">
                    <mxGeometry relative="1" as="geometry"/>
                </mxCell>
                <mxCell id="373" style="edgeStyle=none;html=1;exitX=0.701;exitY=1.008;exitDx=0;exitDy=0;entryX=0.25;entryY=0;entryDx=0;entryDy=0;fontSize=19;fontColor=#FFFFFF;endArrow=blockThin;endFill=1;strokeWidth=2;exitPerimeter=0;" parent="1" source="374" target="377" edge="1">
                    <mxGeometry relative="1" as="geometry"/>
                </mxCell>
                <mxCell id="374" value="" style="rounded=1;whiteSpace=wrap;html=1;fontSize=19;fontColor=#FFFFFF;strokeColor=#FFFFFF;fillColor=#00636E;" parent="1" vertex="1">
                    <mxGeometry x="256" y="1992" width="305" height="60" as="geometry"/>
                </mxCell>
                <mxCell id="375" value="Server Controller" style="text;html=1;strokeColor=none;fillColor=none;align=center;verticalAlign=middle;whiteSpace=wrap;rounded=0;fontColor=#FFFFFF;" parent="1" vertex="1">
                    <mxGeometry x="333" y="1992" width="150" height="30" as="geometry"/>
                </mxCell>
                <mxCell id="376" style="edgeStyle=none;html=1;exitX=0.75;exitY=0;exitDx=0;exitDy=0;entryX=0.896;entryY=0.988;entryDx=0;entryDy=0;entryPerimeter=0;fontSize=19;fontColor=#FFFFFF;endArrow=blockThin;endFill=1;strokeWidth=2;" parent="1" source="377" target="374" edge="1">
                    <mxGeometry relative="1" as="geometry"/>
                </mxCell>
                <mxCell id="377" value="" style="rounded=1;whiteSpace=wrap;html=1;fontColor=#004A52;strokeColor=#FFFFFF;fillColor=#00636E;" parent="1" vertex="1">
                    <mxGeometry x="439" y="2088.5" width="120" height="107" as="geometry"/>
                </mxCell>
                <mxCell id="378" value="Master node" style="text;html=1;strokeColor=none;fillColor=none;align=center;verticalAlign=middle;whiteSpace=wrap;rounded=0;fontColor=#FFFFFF;" parent="1" vertex="1">
                    <mxGeometry x="462.75" y="2095" width="72.5" height="30" as="geometry"/>
                </mxCell>
                <mxCell id="379" value="" style="rounded=1;whiteSpace=wrap;html=1;fontColor=#004A52;strokeColor=#FFFFFF;fillColor=#00636E;" parent="1" vertex="1">
                    <mxGeometry x="612" y="1932" width="198" height="249" as="geometry"/>
                </mxCell>
                <mxCell id="380" value="Slave node #0" style="text;html=1;strokeColor=none;fillColor=none;align=center;verticalAlign=middle;whiteSpace=wrap;rounded=0;fontColor=#FFFFFF;" parent="1" vertex="1">
                    <mxGeometry x="667.38" y="1934" width="87.25" height="30" as="geometry"/>
                </mxCell>
                <mxCell id="381" value="" style="rounded=1;whiteSpace=wrap;html=1;fontSize=19;fontColor=#FFFFFF;strokeColor=#FFFFFF;fillColor=#009999;" parent="1" vertex="1">
                    <mxGeometry x="622" y="1967" width="176" height="91" as="geometry"/>
                </mxCell>
                <mxCell id="382" value="&lt;font style=&quot;font-size: 10px&quot;&gt;ImageTaskModule&lt;/font&gt;" style="text;html=1;strokeColor=none;fillColor=none;align=center;verticalAlign=middle;whiteSpace=wrap;rounded=0;fontColor=#FFFFFF;" parent="1" vertex="1">
                    <mxGeometry x="671.75" y="1966" width="72.5" height="30" as="geometry"/>
                </mxCell>
                <mxCell id="383" value="" style="rounded=1;whiteSpace=wrap;html=1;fontSize=19;fontColor=#FFFFFF;strokeColor=#FFFFFF;fillColor=#00CCCC;" parent="1" vertex="1">
                    <mxGeometry x="623" y="2067" width="176" height="98" as="geometry"/>
                </mxCell>
                <mxCell id="384" value="&lt;font style=&quot;font-size: 10px&quot;&gt;Yolov5TaskModule&lt;/font&gt;" style="text;html=1;strokeColor=none;fillColor=none;align=center;verticalAlign=middle;whiteSpace=wrap;rounded=0;fontColor=#FFFFFF;" parent="1" vertex="1">
                    <mxGeometry x="671.75" y="2068" width="72.5" height="30" as="geometry"/>
                </mxCell>
                <mxCell id="385" value="" style="rounded=1;whiteSpace=wrap;html=1;fontColor=#004A52;strokeColor=#FFFFFF;fillColor=#00636E;" parent="1" vertex="1">
                    <mxGeometry x="609" y="2192" width="198" height="135" as="geometry"/>
                </mxCell>
                <mxCell id="386" value="Slave node #0" style="text;html=1;strokeColor=none;fillColor=none;align=center;verticalAlign=middle;whiteSpace=wrap;rounded=0;fontColor=#FFFFFF;" parent="1" vertex="1">
                    <mxGeometry x="664.38" y="2194" width="87.25" height="30" as="geometry"/>
                </mxCell>
                <mxCell id="387" value="" style="rounded=1;whiteSpace=wrap;html=1;fontSize=19;fontColor=#FFFFFF;strokeColor=#FFFFFF;fillColor=#009999;" parent="1" vertex="1">
                    <mxGeometry x="619" y="2227" width="176" height="91" as="geometry"/>
                </mxCell>
                <mxCell id="388" value="&lt;font style=&quot;font-size: 10px&quot;&gt;ImageTaskModule&lt;/font&gt;" style="text;html=1;strokeColor=none;fillColor=none;align=center;verticalAlign=middle;whiteSpace=wrap;rounded=0;fontColor=#FFFFFF;" parent="1" vertex="1">
                    <mxGeometry x="668.75" y="2226" width="72.5" height="30" as="geometry"/>
                </mxCell>
                <mxCell id="389" value="" style="rounded=1;whiteSpace=wrap;html=1;fontColor=#004A52;strokeColor=#FFFFFF;fillColor=#00636E;arcSize=11;" parent="1" vertex="1">
                    <mxGeometry x="243" y="1948" width="334" height="377" as="geometry"/>
                </mxCell>
                <mxCell id="390" value="&lt;font style=&quot;font-size: 19px&quot;&gt;Server&lt;/font&gt;" style="text;html=1;strokeColor=none;fillColor=none;align=center;verticalAlign=middle;whiteSpace=wrap;rounded=0;fontColor=#FFFFFF;" parent="1" vertex="1">
                    <mxGeometry x="350.5" y="1952" width="119" height="30" as="geometry"/>
                </mxCell>
                <mxCell id="391" value="" style="rounded=1;whiteSpace=wrap;html=1;fontSize=19;fontColor=#FFFFFF;strokeColor=#FFFFFF;fillColor=#00636E;" parent="1" vertex="1">
                    <mxGeometry x="257" y="1993" width="305" height="60" as="geometry"/>
                </mxCell>
                <mxCell id="392" value="Server Controller" style="text;html=1;strokeColor=none;fillColor=none;align=center;verticalAlign=middle;whiteSpace=wrap;rounded=0;fontColor=#FFFFFF;" parent="1" vertex="1">
                    <mxGeometry x="334" y="1993" width="150" height="30" as="geometry"/>
                </mxCell>
                <mxCell id="393" value="" style="rounded=1;whiteSpace=wrap;html=1;fontColor=#004A52;strokeColor=#FFFFFF;fillColor=#00636E;" parent="1" vertex="1">
                    <mxGeometry x="420" y="2089.5" width="140" height="221.5" as="geometry"/>
                </mxCell>
                <mxCell id="394" value="Master node" style="text;html=1;strokeColor=none;fillColor=none;align=center;verticalAlign=middle;whiteSpace=wrap;rounded=0;fontColor=#FFFFFF;" parent="1" vertex="1">
                    <mxGeometry x="454.25" y="2095" width="72.5" height="30" as="geometry"/>
                </mxCell>
                <mxCell id="395" value="" style="rounded=1;whiteSpace=wrap;html=1;fontColor=#004A52;strokeColor=#FFFFFF;fillColor=#00636E;" parent="1" vertex="1">
                    <mxGeometry x="613" y="1933" width="198" height="249" as="geometry"/>
                </mxCell>
                <mxCell id="396" value="Slave node #0" style="text;html=1;strokeColor=none;fillColor=none;align=center;verticalAlign=middle;whiteSpace=wrap;rounded=0;fontColor=#FFFFFF;" parent="1" vertex="1">
                    <mxGeometry x="668.38" y="1935" width="87.25" height="30" as="geometry"/>
                </mxCell>
                <mxCell id="397" value="" style="rounded=1;whiteSpace=wrap;html=1;fontSize=19;fontColor=#FFFFFF;strokeColor=#FFFFFF;fillColor=#009999;" parent="1" vertex="1">
                    <mxGeometry x="623" y="1968" width="176" height="91" as="geometry"/>
                </mxCell>
                <mxCell id="398" value="&lt;font style=&quot;font-size: 10px&quot;&gt;ImageTaskModule&lt;/font&gt;" style="text;html=1;strokeColor=none;fillColor=none;align=center;verticalAlign=middle;whiteSpace=wrap;rounded=0;fontColor=#FFFFFF;" parent="1" vertex="1">
                    <mxGeometry x="672.75" y="1967" width="72.5" height="30" as="geometry"/>
                </mxCell>
                <mxCell id="399" value="" style="rounded=1;whiteSpace=wrap;html=1;fontSize=19;fontColor=#FFFFFF;strokeColor=#FFFFFF;fillColor=#00CCCC;" parent="1" vertex="1">
                    <mxGeometry x="624" y="2068" width="176" height="98" as="geometry"/>
                </mxCell>
                <mxCell id="400" value="&lt;font style=&quot;font-size: 10px&quot;&gt;Yolov5TaskModule&lt;/font&gt;" style="text;html=1;strokeColor=none;fillColor=none;align=center;verticalAlign=middle;whiteSpace=wrap;rounded=0;fontColor=#FFFFFF;" parent="1" vertex="1">
                    <mxGeometry x="672.75" y="2069" width="72.5" height="30" as="geometry"/>
                </mxCell>
                <mxCell id="401" value="" style="rounded=1;whiteSpace=wrap;html=1;fontColor=#004A52;strokeColor=#FFFFFF;fillColor=#00636E;" parent="1" vertex="1">
                    <mxGeometry x="610" y="2193" width="198" height="135" as="geometry"/>
                </mxCell>
                <mxCell id="402" value="Slave node #1" style="text;html=1;strokeColor=none;fillColor=none;align=center;verticalAlign=middle;whiteSpace=wrap;rounded=0;fontColor=#FFFFFF;" parent="1" vertex="1">
                    <mxGeometry x="665.38" y="2195" width="87.25" height="30" as="geometry"/>
                </mxCell>
                <mxCell id="403" value="" style="rounded=1;whiteSpace=wrap;html=1;fontSize=19;fontColor=#FFFFFF;strokeColor=#FFFFFF;fillColor=#009999;" parent="1" vertex="1">
                    <mxGeometry x="620" y="2228" width="176" height="91" as="geometry"/>
                </mxCell>
                <mxCell id="404" value="&lt;font style=&quot;font-size: 10px&quot;&gt;ImageTaskModule&lt;/font&gt;" style="text;html=1;strokeColor=none;fillColor=none;align=center;verticalAlign=middle;whiteSpace=wrap;rounded=0;fontColor=#FFFFFF;" parent="1" vertex="1">
                    <mxGeometry x="669.75" y="2227" width="72.5" height="30" as="geometry"/>
                </mxCell>
                <mxCell id="405" value="&lt;font color=&quot;#004a52&quot; size=&quot;1&quot;&gt;&lt;b&gt;STEP 5: &lt;/b&gt;The task are now reassembled , and routed to the Service Server's response outbox.&lt;/font&gt;" style="text;html=1;strokeColor=none;fillColor=#4DB2BD;align=center;verticalAlign=middle;whiteSpace=wrap;rounded=0;fontSize=10;fontColor=#FFFFFF;gradientColor=none;" parent="1" vertex="1">
                    <mxGeometry x="22" y="1961" width="200" height="109" as="geometry"/>
                </mxCell>
                <mxCell id="406" value="" style="rounded=1;whiteSpace=wrap;html=1;fontColor=#004A52;strokeColor=#FFFFFF;fillColor=#00636E;" parent="1" vertex="1">
                    <mxGeometry x="260" y="2089.5" width="149" height="220.5" as="geometry"/>
                </mxCell>
                <mxCell id="407" value="Service Server" style="text;html=1;strokeColor=none;fillColor=none;align=center;verticalAlign=middle;whiteSpace=wrap;rounded=0;fontColor=#FFFFFF;" parent="1" vertex="1">
                    <mxGeometry x="293" y="2093.5" width="93" height="30" as="geometry"/>
                </mxCell>
                <mxCell id="408" value="" style="rounded=1;whiteSpace=wrap;html=1;fontColor=#004A52;strokeColor=#FFFFFF;fillColor=#00636E;arcSize=26;" parent="1" vertex="1">
                    <mxGeometry x="267" y="2125" width="131" height="45" as="geometry"/>
                </mxCell>
                <mxCell id="409" value="Request inbox" style="text;html=1;strokeColor=none;fillColor=none;align=center;verticalAlign=middle;whiteSpace=wrap;rounded=0;fontColor=#FFFFFF;" parent="1" vertex="1">
                    <mxGeometry x="287" y="2127" width="93" height="30" as="geometry"/>
                </mxCell>
                <mxCell id="410" value="" style="rounded=1;whiteSpace=wrap;html=1;fontColor=#004A52;strokeColor=#FFFFFF;fillColor=#00636E;arcSize=10;" parent="1" vertex="1">
                    <mxGeometry x="268" y="2177.75" width="129" height="122" as="geometry"/>
                </mxCell>
                <mxCell id="411" style="edgeStyle=none;html=1;exitX=1;exitY=0.5;exitDx=0;exitDy=0;entryX=0;entryY=0.5;entryDx=0;entryDy=0;dashed=1;fontSize=10;fontColor=#004A52;endArrow=none;endFill=0;strokeWidth=2;" parent="1" source="412" target="406" edge="1">
                    <mxGeometry relative="1" as="geometry"/>
                </mxCell>
                <mxCell id="412" value="" style="rounded=1;whiteSpace=wrap;html=1;fontColor=#004A52;strokeColor=#FFFFFF;fillColor=#00636E;" parent="1" vertex="1">
                    <mxGeometry x="33" y="2146.75" width="120" height="107" as="geometry"/>
                </mxCell>
                <mxCell id="413" value="Client #0" style="text;html=1;strokeColor=none;fillColor=none;align=center;verticalAlign=middle;whiteSpace=wrap;rounded=0;fontColor=#FFFFFF;" parent="1" vertex="1">
                    <mxGeometry x="62" y="2147.75" width="60" height="30" as="geometry"/>
                </mxCell>
                <mxCell id="414" value="" style="rounded=1;whiteSpace=wrap;html=1;fontColor=#004A52;strokeColor=#FFFFFF;fillColor=#00636E;arcSize=12;" parent="1" vertex="1">
                    <mxGeometry x="425.5" y="2176" width="129" height="120" as="geometry"/>
                </mxCell>
                <mxCell id="415" value="Task outbox" style="text;html=1;strokeColor=none;fillColor=none;align=center;verticalAlign=middle;whiteSpace=wrap;rounded=0;fontColor=#FFFFFF;" parent="1" vertex="1">
                    <mxGeometry x="437.75" y="2171.75" width="93" height="30" as="geometry"/>
                </mxCell>
                <mxCell id="416" value="" style="rounded=1;whiteSpace=wrap;html=1;fontColor=#004A52;strokeColor=#FFFFFF;fillColor=#00636E;arcSize=30;" parent="1" vertex="1">
                    <mxGeometry x="425.5" y="2124" width="129" height="47" as="geometry"/>
                </mxCell>
                <mxCell id="417" value="Task inbox" style="text;html=1;strokeColor=none;fillColor=none;align=center;verticalAlign=middle;whiteSpace=wrap;rounded=0;fontColor=#FFFFFF;" parent="1" vertex="1">
                    <mxGeometry x="443.5" y="2121.5" width="93" height="30" as="geometry"/>
                </mxCell>
                <mxCell id="418" value="Task#B0" style="rounded=1;whiteSpace=wrap;html=1;fontColor=#ffffff;fillColor=#00CCCC;strokeColor=#FFFFFF;arcSize=22;strokeWidth=2;dashed=1;" parent="1" vertex="1">
                    <mxGeometry x="494.5" y="2234.25" width="48.75" height="25" as="geometry"/>
                </mxCell>
                <mxCell id="419" value="Task#A0" style="rounded=1;whiteSpace=wrap;html=1;fontColor=#ffffff;fillColor=#009999;strokeColor=#006EAF;arcSize=22;strokeWidth=2;dashed=1;" parent="1" vertex="1">
                    <mxGeometry x="436.25" y="2204.25" width="50.5" height="26" as="geometry"/>
                </mxCell>
                <mxCell id="420" value="Task#A1" style="rounded=1;whiteSpace=wrap;html=1;fontColor=#ffffff;fillColor=#009999;strokeColor=#006EAF;arcSize=22;strokeWidth=1;" parent="1" vertex="1">
                    <mxGeometry x="492.75" y="2204" width="53" height="26" as="geometry"/>
                </mxCell>
                <mxCell id="421" value="Task#A2" style="rounded=1;whiteSpace=wrap;html=1;fontColor=#ffffff;fillColor=#009999;strokeColor=#006EAF;arcSize=22;strokeWidth=2;dashed=1;" parent="1" vertex="1">
                    <mxGeometry x="436.25" y="2233.25" width="49" height="26" as="geometry"/>
                </mxCell>
                <mxCell id="423" value="Task#B1" style="rounded=1;whiteSpace=wrap;html=1;fontColor=#ffffff;fillColor=#00CCCC;strokeColor=#FFFFFF;arcSize=22;strokeWidth=2;dashed=1;" parent="1" vertex="1">
                    <mxGeometry x="436.75" y="2263.25" width="48.75" height="25" as="geometry"/>
                </mxCell>
                <mxCell id="429" value="" style="rounded=1;whiteSpace=wrap;html=1;shadow=0;glass=0;sketch=0;fontSize=10;fontColor=#004A52;strokeColor=#FFFFFF;strokeWidth=1;fillColor=none;gradientColor=none;gradientDirection=east;" parent="1" vertex="1">
                    <mxGeometry x="632.26" y="2102" width="72.74" height="55" as="geometry"/>
                </mxCell>
                <mxCell id="430" value="&lt;span style=&quot;font-size: 10px&quot;&gt;Task inbox&lt;/span&gt;" style="text;html=1;strokeColor=none;fillColor=none;align=center;verticalAlign=middle;whiteSpace=wrap;rounded=0;fontColor=#FFFFFF;" parent="1" vertex="1">
                    <mxGeometry x="631.63" y="2102" width="72.5" height="30" as="geometry"/>
                </mxCell>
                <mxCell id="432" value="" style="rounded=1;whiteSpace=wrap;html=1;shadow=0;glass=0;sketch=0;fontSize=10;fontColor=#004A52;strokeColor=#FFFFFF;strokeWidth=1;fillColor=none;gradientColor=none;gradientDirection=east;" parent="1" vertex="1">
                    <mxGeometry x="715" y="2103" width="78.37" height="55" as="geometry"/>
                </mxCell>
                <mxCell id="435" value="&lt;span style=&quot;font-size: 10px&quot;&gt;Task outbox&lt;/span&gt;" style="text;html=1;strokeColor=none;fillColor=none;align=center;verticalAlign=middle;whiteSpace=wrap;rounded=0;fontColor=#FFFFFF;rotation=0;" parent="1" vertex="1">
                    <mxGeometry x="726.5" y="2107" width="55.75" height="17" as="geometry"/>
                </mxCell>
                <mxCell id="443" value="Response outbox" style="text;html=1;strokeColor=none;fillColor=none;align=center;verticalAlign=middle;whiteSpace=wrap;rounded=0;fontColor=#FFFFFF;" parent="1" vertex="1">
                    <mxGeometry x="283.5" y="2171.75" width="104" height="30" as="geometry"/>
                </mxCell>
                <mxCell id="444" style="edgeStyle=none;html=1;exitX=0.5;exitY=0;exitDx=0;exitDy=0;entryX=0.5;entryY=0;entryDx=0;entryDy=0;fontSize=10;fontColor=#004A52;endArrow=none;endFill=0;strokeWidth=2;dashed=1;startArrow=open;startFill=0;" parent="1" edge="1">
                    <mxGeometry relative="1" as="geometry">
                        <mxPoint x="333" y="2090.5" as="sourcePoint"/>
                        <mxPoint x="488.5" y="2090.5" as="targetPoint"/>
                        <Array as="points">
                            <mxPoint x="334.5" y="2034"/>
                            <mxPoint x="488.5" y="2033"/>
                        </Array>
                    </mxGeometry>
                </mxCell>
                <mxCell id="445" value="Response # A" style="rounded=1;whiteSpace=wrap;html=1;fontColor=#ffffff;fillColor=#009999;strokeColor=default;arcSize=22;strokeWidth=2;gradientColor=none;gradientDirection=east;shadow=0;glass=0;sketch=0;" parent="1" vertex="1">
                    <mxGeometry x="277.5" y="2210" width="107" height="34" as="geometry"/>
                </mxCell>
                <mxCell id="446" value="Response #B" style="rounded=1;whiteSpace=wrap;html=1;fontColor=#ffffff;fillColor=#00CCCC;strokeColor=#FFFFFF;arcSize=22;strokeWidth=2;sketch=0;" parent="1" vertex="1">
                    <mxGeometry x="277.5" y="2257" width="107" height="28" as="geometry"/>
                </mxCell>
                <mxCell id="448" value="" style="rounded=1;whiteSpace=wrap;html=1;shadow=0;glass=0;sketch=0;fontSize=10;fontColor=#004A52;strokeColor=#FFFFFF;strokeWidth=1;fillColor=none;gradientColor=none;gradientDirection=east;" parent="1" vertex="1">
                    <mxGeometry x="629.89" y="1996" width="72.74" height="55" as="geometry"/>
                </mxCell>
                <mxCell id="449" value="&lt;span style=&quot;font-size: 10px&quot;&gt;Task inbox&lt;/span&gt;" style="text;html=1;strokeColor=none;fillColor=none;align=center;verticalAlign=middle;whiteSpace=wrap;rounded=0;fontColor=#FFFFFF;" parent="1" vertex="1">
                    <mxGeometry x="628.57" y="1997.5" width="72.5" height="30" as="geometry"/>
                </mxCell>
                <mxCell id="450" value="" style="rounded=1;whiteSpace=wrap;html=1;shadow=0;glass=0;sketch=0;fontSize=10;fontColor=#004A52;strokeColor=#FFFFFF;strokeWidth=1;fillColor=none;gradientColor=none;gradientDirection=east;" parent="1" vertex="1">
                    <mxGeometry x="712.63" y="1997" width="78.37" height="55" as="geometry"/>
                </mxCell>
                <mxCell id="451" value="&lt;span style=&quot;font-size: 10px&quot;&gt;Task outbox&lt;/span&gt;" style="text;html=1;strokeColor=none;fillColor=none;align=center;verticalAlign=middle;whiteSpace=wrap;rounded=0;fontColor=#FFFFFF;rotation=0;" parent="1" vertex="1">
                    <mxGeometry x="722.62" y="2003" width="55.75" height="17" as="geometry"/>
                </mxCell>
                <mxCell id="452" value="" style="rounded=1;whiteSpace=wrap;html=1;shadow=0;glass=0;sketch=0;fontSize=10;fontColor=#004A52;strokeColor=#FFFFFF;strokeWidth=1;fillColor=none;gradientColor=none;gradientDirection=east;" parent="1" vertex="1">
                    <mxGeometry x="628.5699999999999" y="2255" width="72.74" height="55" as="geometry"/>
                </mxCell>
                <mxCell id="453" value="&lt;span style=&quot;font-size: 10px&quot;&gt;Task inbox&lt;/span&gt;" style="text;html=1;strokeColor=none;fillColor=none;align=center;verticalAlign=middle;whiteSpace=wrap;rounded=0;fontColor=#FFFFFF;" parent="1" vertex="1">
                    <mxGeometry x="625.86" y="2255" width="72.5" height="30" as="geometry"/>
                </mxCell>
                <mxCell id="454" value="" style="rounded=1;whiteSpace=wrap;html=1;shadow=0;glass=0;sketch=0;fontSize=10;fontColor=#004A52;strokeColor=#FFFFFF;strokeWidth=1;fillColor=none;gradientColor=none;gradientDirection=east;" parent="1" vertex="1">
                    <mxGeometry x="711.31" y="2256" width="78.37" height="55" as="geometry"/>
                </mxCell>
                <mxCell id="455" value="&lt;span style=&quot;font-size: 10px&quot;&gt;Task outbox&lt;/span&gt;" style="text;html=1;strokeColor=none;fillColor=none;align=center;verticalAlign=middle;whiteSpace=wrap;rounded=0;fontColor=#FFFFFF;rotation=0;" parent="1" vertex="1">
                    <mxGeometry x="723.9399999999999" y="2261" width="55.75" height="17" as="geometry"/>
                </mxCell>
                <mxCell id="456" value="" style="rounded=1;whiteSpace=wrap;html=1;dashed=1;fontSize=10;fontColor=#004A52;strokeColor=#4DB2BD;fillColor=none;gradientColor=none;arcSize=8;perimeterSpacing=0;strokeWidth=2;" parent="1" vertex="1">
                    <mxGeometry x="4.5" y="2377" width="810" height="441" as="geometry"/>
                </mxCell>
                <mxCell id="457" value="&lt;font style=&quot;font-size: 19px&quot;&gt;Server&lt;/font&gt;" style="text;html=1;strokeColor=none;fillColor=none;align=center;verticalAlign=middle;whiteSpace=wrap;rounded=0;fontColor=#FFFFFF;" parent="1" vertex="1">
                    <mxGeometry x="349" y="2407" width="119" height="30" as="geometry"/>
                </mxCell>
                <mxCell id="458" style="edgeStyle=none;html=1;exitX=0.75;exitY=0;exitDx=0;exitDy=0;entryX=0.301;entryY=1.008;entryDx=0;entryDy=0;entryPerimeter=0;fontSize=19;fontColor=#FFFFFF;endArrow=blockThin;endFill=1;strokeWidth=2;" parent="1" source="459" target="463" edge="1">
                    <mxGeometry relative="1" as="geometry"/>
                </mxCell>
                <mxCell id="459" value="" style="rounded=1;whiteSpace=wrap;html=1;fontColor=#004A52;strokeColor=#FFFFFF;fillColor=#00636E;" parent="1" vertex="1">
                    <mxGeometry x="256.5" y="2547" width="120" height="107" as="geometry"/>
                </mxCell>
                <mxCell id="460" value="Service Server" style="text;html=1;strokeColor=none;fillColor=none;align=center;verticalAlign=middle;whiteSpace=wrap;rounded=0;fontColor=#FFFFFF;" parent="1" vertex="1">
                    <mxGeometry x="270.5" y="2551" width="93" height="30" as="geometry"/>
                </mxCell>
                <mxCell id="461" style="edgeStyle=none;html=1;exitX=0.105;exitY=0.994;exitDx=0;exitDy=0;entryX=0.25;entryY=0;entryDx=0;entryDy=0;fontSize=19;fontColor=#FFFFFF;endArrow=none;endFill=0;strokeWidth=2;exitPerimeter=0;" parent="1" source="463" target="459" edge="1">
                    <mxGeometry relative="1" as="geometry"/>
                </mxCell>
                <mxCell id="462" style="edgeStyle=none;html=1;exitX=0.701;exitY=1.008;exitDx=0;exitDy=0;entryX=0.25;entryY=0;entryDx=0;entryDy=0;fontSize=19;fontColor=#FFFFFF;endArrow=blockThin;endFill=1;strokeWidth=2;exitPerimeter=0;" parent="1" source="463" target="466" edge="1">
                    <mxGeometry relative="1" as="geometry"/>
                </mxCell>
                <mxCell id="463" value="" style="rounded=1;whiteSpace=wrap;html=1;fontSize=19;fontColor=#FFFFFF;strokeColor=#FFFFFF;fillColor=#00636E;" parent="1" vertex="1">
                    <mxGeometry x="255.5" y="2448" width="305" height="60" as="geometry"/>
                </mxCell>
                <mxCell id="464" value="Server Controller" style="text;html=1;strokeColor=none;fillColor=none;align=center;verticalAlign=middle;whiteSpace=wrap;rounded=0;fontColor=#FFFFFF;" parent="1" vertex="1">
                    <mxGeometry x="332.5" y="2448" width="150" height="30" as="geometry"/>
                </mxCell>
                <mxCell id="465" style="edgeStyle=none;html=1;exitX=0.75;exitY=0;exitDx=0;exitDy=0;entryX=0.896;entryY=0.988;entryDx=0;entryDy=0;entryPerimeter=0;fontSize=19;fontColor=#FFFFFF;endArrow=blockThin;endFill=1;strokeWidth=2;" parent="1" source="466" target="463" edge="1">
                    <mxGeometry relative="1" as="geometry"/>
                </mxCell>
                <mxCell id="466" value="" style="rounded=1;whiteSpace=wrap;html=1;fontColor=#004A52;strokeColor=#FFFFFF;fillColor=#00636E;" parent="1" vertex="1">
                    <mxGeometry x="438.5" y="2544.5" width="120" height="107" as="geometry"/>
                </mxCell>
                <mxCell id="467" value="Master node" style="text;html=1;strokeColor=none;fillColor=none;align=center;verticalAlign=middle;whiteSpace=wrap;rounded=0;fontColor=#FFFFFF;" parent="1" vertex="1">
                    <mxGeometry x="462.25" y="2551" width="72.5" height="30" as="geometry"/>
                </mxCell>
                <mxCell id="468" value="" style="rounded=1;whiteSpace=wrap;html=1;fontColor=#004A52;strokeColor=#FFFFFF;fillColor=#00636E;" parent="1" vertex="1">
                    <mxGeometry x="611.5" y="2388" width="198" height="249" as="geometry"/>
                </mxCell>
                <mxCell id="469" value="Slave node #0" style="text;html=1;strokeColor=none;fillColor=none;align=center;verticalAlign=middle;whiteSpace=wrap;rounded=0;fontColor=#FFFFFF;" parent="1" vertex="1">
                    <mxGeometry x="666.88" y="2390" width="87.25" height="30" as="geometry"/>
                </mxCell>
                <mxCell id="470" value="" style="rounded=1;whiteSpace=wrap;html=1;fontSize=19;fontColor=#FFFFFF;strokeColor=#FFFFFF;fillColor=#009999;" parent="1" vertex="1">
                    <mxGeometry x="621.5" y="2423" width="176" height="91" as="geometry"/>
                </mxCell>
                <mxCell id="471" value="&lt;font style=&quot;font-size: 10px&quot;&gt;ImageTaskModule&lt;/font&gt;" style="text;html=1;strokeColor=none;fillColor=none;align=center;verticalAlign=middle;whiteSpace=wrap;rounded=0;fontColor=#FFFFFF;" parent="1" vertex="1">
                    <mxGeometry x="671.25" y="2422" width="72.5" height="30" as="geometry"/>
                </mxCell>
                <mxCell id="472" value="" style="rounded=1;whiteSpace=wrap;html=1;fontSize=19;fontColor=#FFFFFF;strokeColor=#FFFFFF;fillColor=#00CCCC;" parent="1" vertex="1">
                    <mxGeometry x="622.5" y="2523" width="176" height="98" as="geometry"/>
                </mxCell>
                <mxCell id="473" value="&lt;font style=&quot;font-size: 10px&quot;&gt;Yolov5TaskModule&lt;/font&gt;" style="text;html=1;strokeColor=none;fillColor=none;align=center;verticalAlign=middle;whiteSpace=wrap;rounded=0;fontColor=#FFFFFF;" parent="1" vertex="1">
                    <mxGeometry x="671.25" y="2524" width="72.5" height="30" as="geometry"/>
                </mxCell>
                <mxCell id="474" value="" style="rounded=1;whiteSpace=wrap;html=1;fontColor=#004A52;strokeColor=#FFFFFF;fillColor=#00636E;" parent="1" vertex="1">
                    <mxGeometry x="608.5" y="2648" width="198" height="135" as="geometry"/>
                </mxCell>
                <mxCell id="475" value="Slave node #0" style="text;html=1;strokeColor=none;fillColor=none;align=center;verticalAlign=middle;whiteSpace=wrap;rounded=0;fontColor=#FFFFFF;" parent="1" vertex="1">
                    <mxGeometry x="663.88" y="2650" width="87.25" height="30" as="geometry"/>
                </mxCell>
                <mxCell id="476" value="" style="rounded=1;whiteSpace=wrap;html=1;fontSize=19;fontColor=#FFFFFF;strokeColor=#FFFFFF;fillColor=#009999;" parent="1" vertex="1">
                    <mxGeometry x="618.5" y="2683" width="176" height="91" as="geometry"/>
                </mxCell>
                <mxCell id="477" value="&lt;font style=&quot;font-size: 10px&quot;&gt;ImageTaskModule&lt;/font&gt;" style="text;html=1;strokeColor=none;fillColor=none;align=center;verticalAlign=middle;whiteSpace=wrap;rounded=0;fontColor=#FFFFFF;" parent="1" vertex="1">
                    <mxGeometry x="668.25" y="2682" width="72.5" height="30" as="geometry"/>
                </mxCell>
                <mxCell id="478" value="" style="rounded=1;whiteSpace=wrap;html=1;fontColor=#004A52;strokeColor=#FFFFFF;fillColor=#00636E;arcSize=11;" parent="1" vertex="1">
                    <mxGeometry x="242.5" y="2404" width="334" height="377" as="geometry"/>
                </mxCell>
                <mxCell id="479" value="&lt;font style=&quot;font-size: 19px&quot;&gt;Server&lt;/font&gt;" style="text;html=1;strokeColor=none;fillColor=none;align=center;verticalAlign=middle;whiteSpace=wrap;rounded=0;fontColor=#FFFFFF;" parent="1" vertex="1">
                    <mxGeometry x="350" y="2408" width="119" height="30" as="geometry"/>
                </mxCell>
                <mxCell id="480" value="" style="rounded=1;whiteSpace=wrap;html=1;fontSize=19;fontColor=#FFFFFF;strokeColor=#FFFFFF;fillColor=#00636E;" parent="1" vertex="1">
                    <mxGeometry x="256.5" y="2449" width="305" height="60" as="geometry"/>
                </mxCell>
                <mxCell id="481" value="Server Controller" style="text;html=1;strokeColor=none;fillColor=none;align=center;verticalAlign=middle;whiteSpace=wrap;rounded=0;fontColor=#FFFFFF;" parent="1" vertex="1">
                    <mxGeometry x="333.5" y="2449" width="150" height="30" as="geometry"/>
                </mxCell>
                <mxCell id="482" value="" style="rounded=1;whiteSpace=wrap;html=1;fontColor=#004A52;strokeColor=#FFFFFF;fillColor=#00636E;" parent="1" vertex="1">
                    <mxGeometry x="419.5" y="2545.5" width="140" height="221.5" as="geometry"/>
                </mxCell>
                <mxCell id="483" value="Master node" style="text;html=1;strokeColor=none;fillColor=none;align=center;verticalAlign=middle;whiteSpace=wrap;rounded=0;fontColor=#FFFFFF;" parent="1" vertex="1">
                    <mxGeometry x="453.75" y="2551" width="72.5" height="30" as="geometry"/>
                </mxCell>
                <mxCell id="484" value="" style="rounded=1;whiteSpace=wrap;html=1;fontColor=#004A52;strokeColor=#FFFFFF;fillColor=#00636E;" parent="1" vertex="1">
                    <mxGeometry x="612.5" y="2389" width="198" height="249" as="geometry"/>
                </mxCell>
                <mxCell id="485" value="Slave node #0" style="text;html=1;strokeColor=none;fillColor=none;align=center;verticalAlign=middle;whiteSpace=wrap;rounded=0;fontColor=#FFFFFF;" parent="1" vertex="1">
                    <mxGeometry x="667.88" y="2391" width="87.25" height="30" as="geometry"/>
                </mxCell>
                <mxCell id="486" value="" style="rounded=1;whiteSpace=wrap;html=1;fontSize=19;fontColor=#FFFFFF;strokeColor=#FFFFFF;fillColor=#009999;" parent="1" vertex="1">
                    <mxGeometry x="622.5" y="2424" width="176" height="91" as="geometry"/>
                </mxCell>
                <mxCell id="487" value="&lt;font style=&quot;font-size: 10px&quot;&gt;ImageTaskModule&lt;/font&gt;" style="text;html=1;strokeColor=none;fillColor=none;align=center;verticalAlign=middle;whiteSpace=wrap;rounded=0;fontColor=#FFFFFF;" parent="1" vertex="1">
                    <mxGeometry x="672.25" y="2423" width="72.5" height="30" as="geometry"/>
                </mxCell>
                <mxCell id="488" value="" style="rounded=1;whiteSpace=wrap;html=1;fontSize=19;fontColor=#FFFFFF;strokeColor=#FFFFFF;fillColor=#00CCCC;" parent="1" vertex="1">
                    <mxGeometry x="623.5" y="2524" width="176" height="98" as="geometry"/>
                </mxCell>
                <mxCell id="489" value="&lt;font style=&quot;font-size: 10px&quot;&gt;Yolov5TaskModule&lt;/font&gt;" style="text;html=1;strokeColor=none;fillColor=none;align=center;verticalAlign=middle;whiteSpace=wrap;rounded=0;fontColor=#FFFFFF;" parent="1" vertex="1">
                    <mxGeometry x="672.25" y="2525" width="72.5" height="30" as="geometry"/>
                </mxCell>
                <mxCell id="490" value="" style="rounded=1;whiteSpace=wrap;html=1;fontColor=#004A52;strokeColor=#FFFFFF;fillColor=#00636E;" parent="1" vertex="1">
                    <mxGeometry x="609.5" y="2649" width="198" height="135" as="geometry"/>
                </mxCell>
                <mxCell id="491" value="Slave node #1" style="text;html=1;strokeColor=none;fillColor=none;align=center;verticalAlign=middle;whiteSpace=wrap;rounded=0;fontColor=#FFFFFF;" parent="1" vertex="1">
                    <mxGeometry x="664.88" y="2651" width="87.25" height="30" as="geometry"/>
                </mxCell>
                <mxCell id="492" value="" style="rounded=1;whiteSpace=wrap;html=1;fontSize=19;fontColor=#FFFFFF;strokeColor=#FFFFFF;fillColor=#009999;" parent="1" vertex="1">
                    <mxGeometry x="619.5" y="2684" width="176" height="91" as="geometry"/>
                </mxCell>
                <mxCell id="493" value="&lt;font style=&quot;font-size: 10px&quot;&gt;ImageTaskModule&lt;/font&gt;" style="text;html=1;strokeColor=none;fillColor=none;align=center;verticalAlign=middle;whiteSpace=wrap;rounded=0;fontColor=#FFFFFF;" parent="1" vertex="1">
                    <mxGeometry x="669.25" y="2683" width="72.5" height="30" as="geometry"/>
                </mxCell>
                <mxCell id="494" value="&lt;font color=&quot;#004a52&quot; size=&quot;1&quot;&gt;&lt;b&gt;STEP 6: &lt;/b&gt;Finally the server sends the response with the performed task to the client.&lt;/font&gt;" style="text;html=1;strokeColor=none;fillColor=#4DB2BD;align=center;verticalAlign=middle;whiteSpace=wrap;rounded=0;fontSize=10;fontColor=#FFFFFF;gradientColor=none;" parent="1" vertex="1">
                    <mxGeometry x="21.5" y="2417" width="200" height="109" as="geometry"/>
                </mxCell>
                <mxCell id="495" value="" style="rounded=1;whiteSpace=wrap;html=1;fontColor=#004A52;strokeColor=#FFFFFF;fillColor=#00636E;" parent="1" vertex="1">
                    <mxGeometry x="259.5" y="2545.5" width="149" height="220.5" as="geometry"/>
                </mxCell>
                <mxCell id="496" value="Service Server" style="text;html=1;strokeColor=none;fillColor=none;align=center;verticalAlign=middle;whiteSpace=wrap;rounded=0;fontColor=#FFFFFF;" parent="1" vertex="1">
                    <mxGeometry x="292.5" y="2549.5" width="93" height="30" as="geometry"/>
                </mxCell>
                <mxCell id="497" value="" style="rounded=1;whiteSpace=wrap;html=1;fontColor=#004A52;strokeColor=#FFFFFF;fillColor=#00636E;arcSize=26;" parent="1" vertex="1">
                    <mxGeometry x="266.5" y="2581" width="131" height="45" as="geometry"/>
                </mxCell>
                <mxCell id="498" value="Request inbox" style="text;html=1;strokeColor=none;fillColor=none;align=center;verticalAlign=middle;whiteSpace=wrap;rounded=0;fontColor=#FFFFFF;" parent="1" vertex="1">
                    <mxGeometry x="286.5" y="2583" width="93" height="30" as="geometry"/>
                </mxCell>
                <mxCell id="528" style="edgeStyle=none;html=1;exitX=0;exitY=0.5;exitDx=0;exitDy=0;entryX=1;entryY=0.5;entryDx=0;entryDy=0;fontSize=7;fontColor=#004A52;endArrow=classic;endFill=1;strokeWidth=2;" parent="1" source="499" target="501" edge="1">
                    <mxGeometry relative="1" as="geometry"/>
                </mxCell>
                <mxCell id="499" value="" style="rounded=1;whiteSpace=wrap;html=1;fontColor=#004A52;strokeColor=#FFFFFF;fillColor=#00636E;arcSize=10;" parent="1" vertex="1">
                    <mxGeometry x="267.5" y="2633.75" width="129" height="122" as="geometry"/>
                </mxCell>
                <mxCell id="501" value="" style="rounded=1;whiteSpace=wrap;html=1;fontColor=#004A52;strokeColor=#FFFFFF;fillColor=#00636E;" parent="1" vertex="1">
                    <mxGeometry x="32.5" y="2602.75" width="120" height="107" as="geometry"/>
                </mxCell>
                <mxCell id="502" value="Client #0" style="text;html=1;strokeColor=none;fillColor=none;align=center;verticalAlign=middle;whiteSpace=wrap;rounded=0;fontColor=#FFFFFF;" parent="1" vertex="1">
                    <mxGeometry x="61.5" y="2603.75" width="60" height="30" as="geometry"/>
                </mxCell>
                <mxCell id="503" value="" style="rounded=1;whiteSpace=wrap;html=1;fontColor=#004A52;strokeColor=#FFFFFF;fillColor=#00636E;arcSize=12;" parent="1" vertex="1">
                    <mxGeometry x="425" y="2632" width="129" height="120" as="geometry"/>
                </mxCell>
                <mxCell id="504" value="Task outbox" style="text;html=1;strokeColor=none;fillColor=none;align=center;verticalAlign=middle;whiteSpace=wrap;rounded=0;fontColor=#FFFFFF;" parent="1" vertex="1">
                    <mxGeometry x="437.25" y="2627.75" width="93" height="30" as="geometry"/>
                </mxCell>
                <mxCell id="505" value="" style="rounded=1;whiteSpace=wrap;html=1;fontColor=#004A52;strokeColor=#FFFFFF;fillColor=#00636E;arcSize=30;" parent="1" vertex="1">
                    <mxGeometry x="425" y="2580" width="129" height="47" as="geometry"/>
                </mxCell>
                <mxCell id="506" value="Task inbox" style="text;html=1;strokeColor=none;fillColor=none;align=center;verticalAlign=middle;whiteSpace=wrap;rounded=0;fontColor=#FFFFFF;" parent="1" vertex="1">
                    <mxGeometry x="443" y="2577.5" width="93" height="30" as="geometry"/>
                </mxCell>
                <mxCell id="512" value="" style="rounded=1;whiteSpace=wrap;html=1;shadow=0;glass=0;sketch=0;fontSize=10;fontColor=#004A52;strokeColor=#FFFFFF;strokeWidth=1;fillColor=none;gradientColor=none;gradientDirection=east;" parent="1" vertex="1">
                    <mxGeometry x="631.76" y="2558" width="72.74" height="55" as="geometry"/>
                </mxCell>
                <mxCell id="513" value="&lt;span style=&quot;font-size: 10px&quot;&gt;Task inbox&lt;/span&gt;" style="text;html=1;strokeColor=none;fillColor=none;align=center;verticalAlign=middle;whiteSpace=wrap;rounded=0;fontColor=#FFFFFF;" parent="1" vertex="1">
                    <mxGeometry x="631.13" y="2558" width="72.5" height="30" as="geometry"/>
                </mxCell>
                <mxCell id="514" value="" style="rounded=1;whiteSpace=wrap;html=1;shadow=0;glass=0;sketch=0;fontSize=10;fontColor=#004A52;strokeColor=#FFFFFF;strokeWidth=1;fillColor=none;gradientColor=none;gradientDirection=east;" parent="1" vertex="1">
                    <mxGeometry x="714.5" y="2559" width="78.37" height="55" as="geometry"/>
                </mxCell>
                <mxCell id="515" value="&lt;span style=&quot;font-size: 10px&quot;&gt;Task outbox&lt;/span&gt;" style="text;html=1;strokeColor=none;fillColor=none;align=center;verticalAlign=middle;whiteSpace=wrap;rounded=0;fontColor=#FFFFFF;rotation=0;" parent="1" vertex="1">
                    <mxGeometry x="726" y="2563" width="55.75" height="17" as="geometry"/>
                </mxCell>
                <mxCell id="516" value="Response outbox" style="text;html=1;strokeColor=none;fillColor=none;align=center;verticalAlign=middle;whiteSpace=wrap;rounded=0;fontColor=#FFFFFF;" parent="1" vertex="1">
                    <mxGeometry x="283" y="2627.75" width="104" height="30" as="geometry"/>
                </mxCell>
                <mxCell id="518" value="Response # A" style="rounded=1;whiteSpace=wrap;html=1;fontColor=#ffffff;fillColor=#009999;strokeColor=default;arcSize=22;strokeWidth=2;gradientColor=none;gradientDirection=east;shadow=0;glass=0;sketch=0;dashed=1;" parent="1" vertex="1">
                    <mxGeometry x="277" y="2671" width="107" height="29" as="geometry"/>
                </mxCell>
                <mxCell id="519" value="Response #B" style="rounded=1;whiteSpace=wrap;html=1;fontColor=#ffffff;fillColor=#00CCCC;strokeColor=#FFFFFF;arcSize=22;strokeWidth=2;sketch=0;dashed=1;" parent="1" vertex="1">
                    <mxGeometry x="277" y="2713" width="107" height="28" as="geometry"/>
                </mxCell>
                <mxCell id="520" value="" style="rounded=1;whiteSpace=wrap;html=1;shadow=0;glass=0;sketch=0;fontSize=10;fontColor=#004A52;strokeColor=#FFFFFF;strokeWidth=1;fillColor=none;gradientColor=none;gradientDirection=east;" parent="1" vertex="1">
                    <mxGeometry x="629.39" y="2452" width="72.74" height="55" as="geometry"/>
                </mxCell>
                <mxCell id="521" value="&lt;span style=&quot;font-size: 10px&quot;&gt;Task inbox&lt;/span&gt;" style="text;html=1;strokeColor=none;fillColor=none;align=center;verticalAlign=middle;whiteSpace=wrap;rounded=0;fontColor=#FFFFFF;" parent="1" vertex="1">
                    <mxGeometry x="628.07" y="2453.5" width="72.5" height="30" as="geometry"/>
                </mxCell>
                <mxCell id="522" value="" style="rounded=1;whiteSpace=wrap;html=1;shadow=0;glass=0;sketch=0;fontSize=10;fontColor=#004A52;strokeColor=#FFFFFF;strokeWidth=1;fillColor=none;gradientColor=none;gradientDirection=east;" parent="1" vertex="1">
                    <mxGeometry x="712.13" y="2453" width="78.37" height="55" as="geometry"/>
                </mxCell>
                <mxCell id="523" value="&lt;span style=&quot;font-size: 10px&quot;&gt;Task outbox&lt;/span&gt;" style="text;html=1;strokeColor=none;fillColor=none;align=center;verticalAlign=middle;whiteSpace=wrap;rounded=0;fontColor=#FFFFFF;rotation=0;" parent="1" vertex="1">
                    <mxGeometry x="722.12" y="2459" width="55.75" height="17" as="geometry"/>
                </mxCell>
                <mxCell id="524" value="" style="rounded=1;whiteSpace=wrap;html=1;shadow=0;glass=0;sketch=0;fontSize=10;fontColor=#004A52;strokeColor=#FFFFFF;strokeWidth=1;fillColor=none;gradientColor=none;gradientDirection=east;" parent="1" vertex="1">
                    <mxGeometry x="628.0699999999999" y="2711" width="72.74" height="55" as="geometry"/>
                </mxCell>
                <mxCell id="525" value="&lt;span style=&quot;font-size: 10px&quot;&gt;Task inbox&lt;/span&gt;" style="text;html=1;strokeColor=none;fillColor=none;align=center;verticalAlign=middle;whiteSpace=wrap;rounded=0;fontColor=#FFFFFF;" parent="1" vertex="1">
                    <mxGeometry x="625.36" y="2711" width="72.5" height="30" as="geometry"/>
                </mxCell>
                <mxCell id="526" value="" style="rounded=1;whiteSpace=wrap;html=1;shadow=0;glass=0;sketch=0;fontSize=10;fontColor=#004A52;strokeColor=#FFFFFF;strokeWidth=1;fillColor=none;gradientColor=none;gradientDirection=east;" parent="1" vertex="1">
                    <mxGeometry x="710.81" y="2712" width="78.37" height="55" as="geometry"/>
                </mxCell>
                <mxCell id="527" value="&lt;span style=&quot;font-size: 10px&quot;&gt;Task outbox&lt;/span&gt;" style="text;html=1;strokeColor=none;fillColor=none;align=center;verticalAlign=middle;whiteSpace=wrap;rounded=0;fontColor=#FFFFFF;rotation=0;" parent="1" vertex="1">
                    <mxGeometry x="723.4399999999999" y="2717" width="55.75" height="17" as="geometry"/>
                </mxCell>
                <mxCell id="529" value="Response # A" style="rounded=1;whiteSpace=wrap;html=1;fontColor=#ffffff;fillColor=#009999;strokeColor=default;arcSize=22;strokeWidth=2;gradientColor=none;gradientDirection=east;shadow=0;glass=0;sketch=0;" parent="1" vertex="1">
                    <mxGeometry x="38.5" y="2640" width="107" height="26" as="geometry"/>
                </mxCell>
                <mxCell id="530" value="Response #B" style="rounded=1;whiteSpace=wrap;html=1;fontColor=#ffffff;fillColor=#00CCCC;strokeColor=#FFFFFF;arcSize=22;strokeWidth=2;sketch=0;" parent="1" vertex="1">
                    <mxGeometry x="39.5" y="2676" width="107" height="24" as="geometry"/>
                </mxCell>
            </root>
        </mxGraphModel>
    </diagram>
</mxfile>